<svg xmlns="http://www.w3.org/2000/svg" width="682.667" height="682.667" version="1.0" viewBox="0 0 512 512">
  <path d="M239.8 1.6c-16.9 4-33.1 17.3-41.5 33.7-2.9 5.8-6.3 18.5-6.3 23.7 0 3.6-.1 3.7-9.2 8.3-50.7 25.2-84.2 73.4-90.8 130.2-.5 5-1 28.6-1 52.5 0 54.8-1.8 73-10.5 102.8-9.1 31.8-23.1 52.4-43.7 64.2-8.2 4.7-10.3 7.7-10.3 14.5 0 5.8 1.8 9.1 6.9 12.9 2.7 2.1 3.8 2.1 73.9 2.4l71.3.3 1.7 6.6c6.6 25.2 27 46.6 52.7 55.3 9.3 3.1 28.8 3.9 39.6 1.6 27.6-6 51.9-29.4 59.1-56.9l1.7-6.6 71.3-.3c70.1-.3 71.2-.3 73.9-2.4 5.1-3.8 6.9-7.1 6.9-12.9 0-6.8-2.2-9.8-10.4-14.5-26.5-15.1-43.1-46.9-51.2-98.7-2-12.4-2.3-19.5-2.9-68.3-.8-58.5-1-61.5-6.6-80.8-13-44.9-45.3-83.1-87-102.9l-7.1-3.4-.6-6.2c-2.4-25.8-22.8-49.3-47.8-55.2-7.9-1.8-24.4-1.8-32.1.1zm23.3 28.8c7.3 1.7 13.8 5.5 18.4 10.8 4 4.6 7.2 10.4 6.3 11.3-.3.3-3.9 0-7.9-.7-4.1-.7-14.8-1.2-23.9-1.2-9.1 0-19.8.5-23.9 1.2-4 .7-7.6 1-7.9.7-.9-.9 2.3-6.7 6.3-11.3 4.5-5.2 11.1-9.1 17.9-10.8 6.7-1.6 8-1.6 14.7 0zm18.4 52.1c17.9 3.7 36.3 11.5 51.4 21.8 4.2 2.8 12.3 9.9 18.1 15.7 15.9 15.8 26.1 32.3 33 52.8 6.2 18.6 6.2 19 7 78.7.7 47.9 1 56.8 2.8 68.6 1.2 7.5 2.4 14.9 2.8 16.3l.6 2.6H114.8l.6-2.8c.4-1.5 1.6-8.8 2.7-16.2 1.9-11.9 2.2-19.9 2.9-68.5.8-59.8.8-60 7.1-79 16.1-48.5 59.5-84.4 110.5-91.4 9.7-1.4 33.4-.6 42.9 1.4zm126 293.2c3.5 10.1 11.2 25.4 17 34l4.5 6.8-86.5.3c-47.6.1-125.4.1-173 0l-86.5-.3 4.5-6.8c5.8-8.6 13.5-23.9 17-34l2.8-7.7h297.4l2.8 7.7zM302 448c0 2.6-6.4 13.3-11 18.3-9.9 10.8-21.1 15.9-35 15.9-13.9 0-25.1-5.1-35-15.9-4.6-5-11-15.7-11-18.3 0-.7 15.1-1 46-1s46 .3 46 1z"/>
  <path d="M242 100.1c-15.9 1.8-36.2 9.5-50.1 19-24.6 16.7-42.1 44.2-47.4 74.3-3.9 22.6-.4 32.4 11.8 33.4 6.3.5 10.5-1.3 13.7-5.8 1.7-2.4 2.4-5.3 3.1-13.3 1-13.1 2.9-20 8.3-31.2 13.2-27.6 38.5-44.5 70.9-47.4 11-.9 14-2.4 16.9-8.2 5.4-10.4-2.9-22.1-15.3-21.8-2.4.1-7.8.5-11.9 1z"/>
</svg>
