<svg xmlns="http://www.w3.org/2000/svg" width="682.667" height="682.667" version="1.0" viewBox="0 0 512 512">
  <path d="M234.8 11c-36.2 9.2-41.1 11-46.2 17.1-4.7 5.6-6.2 9.8-13.7 40.1L167.5 98h-118l-5.2 2.4c-2.8 1.4-7 4.3-9.2 6.6-4.2 4.4-5.4 7-11.7 26.4-3.9 11.7-3.9 11.8-8.2 13.9-5.2 2.4-9.3 6.3-11.6 11-2.3 5-2.3 30.3 0 35 2.3 4.5 6.3 8.6 10.6 10.8 3.1 1.6 3.8 2.5 4.3 6.1.3 2.4 6.8 64.2 14.5 137.5C44.4 456.5 47.4 482 49.1 486.5c2.7 7.3 10.9 16.2 18.6 20l5.8 3 76.8.3 76.7.2 6.3-2.5 6.3-2.5 5.4 2.3 5.5 2.2 106.5.3c74.3.2 108.1-.1 111.7-.9 8.6-1.7 18.7-7.4 25.6-14.3 10.5-10.5 15.7-22.9 15.7-37.3 0-8.8-2-13.4-8-18.6l-4-3.4 2-4.4c3.9-8.7 1.9-22.1-4.2-28.7l-2.1-2.2 2.1-2.3c6.1-6.5 8.1-19.9 4.2-28.6l-2-4.4 4-3.4c2.2-2 5-5.4 6.2-7.6 1.8-3.7 2-5.3 1.6-15.7-.9-21.1-9.1-39.2-24.8-55-10.1-10.1-20.5-16.5-34-21.2l-9.5-3.3h-80.6c-80 0-80.5 0-80.2-2 .1-1.1 1.2-11.2 2.3-22.5 3-29.4 2.6-27.7 6.8-29.9 4.3-2.2 8.3-6.3 10.6-10.8 2.3-4.6 2.3-30 0-34.9-2.1-4.5-6.7-8.9-11.8-11.2-4-1.9-4.2-2.2-8-13.8-6.3-19.4-7.5-22-11.7-26.4-2.2-2.3-6.4-5.2-9.2-6.6-5-2.3-5.9-2.4-29.4-2.4-13.4 0-24.3-.2-24.3-.5 0-2.4 10.5-42.3 11.4-43.1.6-.6 15.3-4.6 32.6-8.9 17.3-4.3 32.5-8.4 33.8-9.1 1.6-1.1 2.2-2.4 2.2-5.2 0-4.6-5.4-25.7-7-27.7-2.2-2.6-8.7-1.5-44.2 7.5zm36 10.1c.7 2.9 1.1 5.3 1 5.4-.2.1-14.3 3.7-31.5 8-17.2 4.2-32 8.3-33 9-1.2.9-3.7 9.1-8.3 27.7l-6.6 26.3-5.8.3c-5.2.3-5.7.1-5.2-1.5.3-1 3.5-14 7.2-28.8l6.7-27 4.2-4.1 4.2-4.1 31.9-8c17.5-4.5 32.4-8.2 33-8.2.6-.1 1.6 2.2 2.2 5zm-16.5 91.3c5.3 2.6 8 7.2 12.7 21.1 2.2 6.6 4 12 4 12.2 0 .2-53.5.3-119 .3s-119-.1-119-.3c0-.2 1.8-5.6 3.9-12 5.8-17.1 8.4-20.6 16.8-22.6 2.2-.5 46-.9 100.3-.8 92.7.2 96.6.3 100.3 2.1zm28 46.7c5.9 1.6 7.2 4.5 7.2 16.4 0 6.5-.5 11.1-1.3 12.6-3 5.7 5.2 5.4-134 5.7-87.7.1-129.6-.1-132.3-.8-6.2-1.7-7.4-4.5-7.4-17 0-12.1 1.3-15.3 6.8-16.9 4.6-1.3 256.1-1.4 261 0zm-9.8 50.1c-.3 1.8-1.7 14.5-3.1 28.3-1.4 13.7-2.7 25-2.7 25-.1 0-4 1.9-8.7 4.1-10 4.9-19.1 11.5-25.4 18.4l-4.4 5h-188l-.6-4.8c-.3-2.6-2.2-20-4.1-38.7-1.9-18.7-3.7-35.5-4-37.3l-.6-3.2h242.2l-.6 3.2zM441 272.4c32.6 9.1 56 37.7 56 68.3 0 6.2-.3 7.3-2.5 9.5-1.4 1.4-3.9 2.8-5.6 3.2-5.6 1.1-255.1.7-259.1-.4-5.4-1.5-6.8-4.2-6.8-12.4 0-24.6 16.7-50.3 40.6-62.4 6.5-3.3 17-6.4 24.7-7.2 4-.4 38.5-.7 76.7-.6 63.6.2 70 .4 76 2zm-221 29.9c0 .2-1.1 2.5-2.4 5.3-4.4 9-6.7 18.5-7.3 29-.8 14.4-.2 16.6 6.2 23l5.4 5.4-1.9 4.3c-3.9 8.4-1.9 21.9 4.2 28.4 1.1 1.2 1.7 2.6 1.3 3.2-.4.8-26.5 1.1-87 1.1H52.1l-.5-3.3c-.3-1.7-2.6-23-5.1-47.2-2.5-24.2-4.7-45.2-5-46.8l-.4-2.7h89.4c49.2 0 89.5.1 89.5.3zm128.4 77.4 15.8 13.8-57.3.3c-31.6.2-59.9 0-62.9-.4-4.5-.5-6.1-1.2-9.2-4.4-3.4-3.4-3.8-4.3-3.8-8.9 0-4.4.5-5.6 3.3-8.7 1.8-2 4.7-3.9 6.7-4.4 1.9-.4 23.3-.8 47.6-.9l44.1-.1 15.7 13.7zm97.6-13.3c0 .3-10.3 9.5-23 20.6l-23 20.1-23-20.1c-12.6-11.1-23-20.3-23-20.6 0-.2 20.7-.4 46-.4s46 .2 46 .4zm32.5.6c2.5.6 5.2 2.2 7.3 4.4 2.7 3.1 3.2 4.3 3.2 8.7 0 4.6-.4 5.5-3.8 8.9-4.7 4.7-8 5.2-32.1 4.8l-17.3-.3 15.8-13.8c17.1-14.9 17.2-15 26.9-12.7zm-220 42.9c.9 5.7 5.8 15.3 10 20l3.7 4.1h-13.3c-16.7-.1-20.5-.9-24.6-5.4-2.8-3-3.3-4.3-3.3-8.6s.5-5.6 3.3-8.6c3.7-4 7.2-5.1 16.9-5.3l6.6-.1.7 3.9zm77.6-1.1c-5.7 19.6-27.6 29.9-45.7 21.3-9.2-4.4-15.8-11.9-18.5-21.3l-.8-2.8h65.8l-.8 2.8zm51.4 5.2c12.1 10.7 12.9 10.7 25 0l9-8H448c14.6 0 28.3.5 30.5 1 2.5.6 5.2 2.2 7.3 4.4 2.7 3 3.2 4.3 3.2 8.6s-.5 5.6-3.2 8.6c-2.1 2.2-4.8 3.8-7.3 4.4-2.2.5-34.6 1-73.4 1h-69.3l3.7-4.1c4.2-4.7 9.1-14.3 10-20l.7-3.9H378.5l9 8zM218 420.2c0 4.1.7 7.8 2 10.7l2 4.3-4.4 3.9c-6 5.3-7.6 9.1-7.6 18.1 0 12.7 3.4 22.4 11.7 33.1 2.5 3.2 4.2 6.1 3.8 6.5-.4.4-33.4.7-73.3.7-71.6 0-72.8 0-77.2-2.1-2.5-1.1-6.1-3.6-7.9-5.5-6.1-6-7-9.6-10.1-39.7-1.7-15.2-3.2-29.6-3.5-32l-.6-4.2H218v6.2zm272.3 26.9c5.5 1.5 7 4.5 6.5 12.6-1 18.7-16.9 34.8-36.6 37.4-8.8 1.1-191.6 1.1-200.4 0-19.7-2.6-35.6-18.7-36.6-37.4-.5-7.9 1.1-11.1 6.1-12.6 4.6-1.3 256.1-1.4 261 0z"/>
  <path d="M282 290c-1.3 1.3-2 3.3-2 6 0 5.3 2.7 8 8 8s8-2.7 8-8c0-2.7-.7-4.7-2-6-1.3-1.3-3.3-2-6-2s-4.7.7-6 2zM330 290c-1.3 1.3-2 3.3-2 6 0 5.3 2.7 8 8 8s8-2.7 8-8c0-2.7-.7-4.7-2-6-1.3-1.3-3.3-2-6-2s-4.7.7-6 2zM378 290c-1.3 1.3-2 3.3-2 6 0 5.3 2.7 8 8 8s8-2.7 8-8c0-2.7-.7-4.7-2-6-1.3-1.3-3.3-2-6-2s-4.7.7-6 2zM426 290c-1.3 1.3-2 3.3-2 6 0 5.3 2.7 8 8 8s8-2.7 8-8c0-2.7-.7-4.7-2-6-1.3-1.3-3.3-2-6-2s-4.7.7-6 2zM258 322c-1.3 1.3-2 3.3-2 6 0 5.3 2.7 8 8 8s8-2.7 8-8c0-2.7-.7-4.7-2-6-1.3-1.3-3.3-2-6-2s-4.7.7-6 2zM306 322c-1.3 1.3-2 3.3-2 6 0 5.3 2.7 8 8 8s8-2.7 8-8c0-2.7-.7-4.7-2-6-1.3-1.3-3.3-2-6-2s-4.7.7-6 2zM354 322c-1.3 1.3-2 3.3-2 6 0 5.3 2.7 8 8 8s8-2.7 8-8c0-2.7-.7-4.7-2-6-1.3-1.3-3.3-2-6-2s-4.7.7-6 2zM402 322c-1.3 1.3-2 3.3-2 6 0 5.3 2.7 8 8 8s8-2.7 8-8c0-2.7-.7-4.7-2-6-1.3-1.3-3.3-2-6-2s-4.7.7-6 2zM450 322c-1.3 1.3-2 3.3-2 6 0 5.3 2.7 8 8 8s8-2.7 8-8c0-2.7-.7-4.7-2-6-1.3-1.3-3.3-2-6-2s-4.7.7-6 2z"/>
</svg>
