<svg xmlns="http://www.w3.org/2000/svg" width="682.667" height="682.667" version="1.0" viewBox="0 0 512 512">
  <path d="M117.2 1.3c-1.2.7-2.9 2.3-3.7 3.5-1.1 1.4-4.9 24.2-11.4 67.9-5.5 36.2-10.2 68.7-10.6 72.3-1.5 14.4 3.3 34.3 11.5 48.1 7.4 12.5 21.8 26 34.1 31.9 4.4 2.2 4.7 2.5 4.3 5.9-.3 2-4.1 54.7-8.5 117.1-9.1 127.5-9 122.3-2.3 135.8 7.3 15 21.4 25.1 37.9 27.5 21.1 3.1 42.7-8.4 51.9-27.5 6.6-13.7 6.7-8.2-2.3-133.8-4.4-61.9-8.2-114.8-8.5-117.5l-.5-5 8.1-4.5c19.2-10.6 34-30.1 39.9-52.5 3.8-14.9 3.3-22.2-7.9-96.2-10.4-68.8-10.9-70.9-15.9-73.2-5-2.3-11.2-.1-13.7 4.7-.9 1.8-2.9 20.6-6 59.2-2.6 31.1-5.1 57.5-5.6 58.7-1.1 2.7-5.3 3.9-8.9 2.7-1.9-.7-2.8-1.9-3.4-4.4-.4-1.9-2.8-28.1-5.2-58.2-2.5-30.1-4.9-55.7-5.4-57-1.6-4.1-4.9-6.3-9.8-6.3-3.8 0-4.9.5-7.4 3.3-1.6 1.8-2.9 3.8-2.9 4.5 0 .6-2.2 26.7-4.9 58-5.2 61.9-5 60.7-11.3 60.7-2.8 0-6.8-3-6.8-5.1 0-6.2-9.3-111.3-10.1-114.2-1.7-6.3-9.1-9.5-14.7-6.4zM396.3 5.5c-43.6 22.3-72.5 61.2-80.5 108.3-1.9 11-1.6 46.5.5 61.9 4.6 33.8 14.8 62.4 29.5 82.9l5.8 8-7.7 8.2c-6.6 6.9-7.9 8.9-8.4 12.4-.3 2.4-4.3 42.5-9 89.3-9 91.1-9 90.9-4.7 102.3 8.5 22.2 31.5 35.9 54.7 32.5 21.6-3.1 40.2-21.2 43.5-42.3.6-4.2 1-84.9 1-232.8 0-247.8.4-231.4-5.9-234.6-4.7-2.5-7.3-2-18.8 3.9z"/>
</svg>
