<svg xmlns="http://www.w3.org/2000/svg" width="682.667" height="682.667" version="1.0" viewBox="0 0 512 512">
  <path d="M97.4 132.5c-14.2 3.1-26.6 9.8-36.9 20-8.3 8.2-14.2 17.7-18.2 29-2.7 7.7-2.8 8.8-3.1 32.2l-.4 24.2-5.1 1.7c-13.9 4.5-27 14.1-31.2 22.9-7.8 16.8 3.8 34.2 28.8 43l7.7 2.8v4.2c0 6.6 3.6 19.2 8.2 28.5 3.3 6.9 5.9 10.2 13.2 17.6 7.5 7.4 10.7 9.9 18.3 13.6 17.7 8.9 4.8 8.3 175.3 8.3 142.2 0 150.9-.1 158.3-1.8 29.6-7 52.7-33 56.2-63.3l.7-6.1 9.7-3.2c45.1-14.8 43.6-53.1-2.6-67.1l-7.1-2.1-.5-22.7c-.4-24.9-1.2-29.2-7.1-41.7-6.2-13.2-19.5-26.9-32.5-33.5-11-5.5-19.4-7.5-32.6-7.5-16.9 0-30.2 4.1-42.7 13-2.6 1.9-5 3.5-5.3 3.5-.3 0-2.7-1.6-5.3-3.5-24.3-17.4-57.9-17.7-83.1-.6l-6.3 4.3-4.4-3.2c-5.8-4.1-19.4-10.4-26.4-12.1-8.2-2.1-27.1-1.8-35 .5-7.6 2.2-18.6 7.4-24.5 11.7l-4.3 3.1-6.1-4.2c-16.1-11-37.6-15.4-55.7-11.5zm25.8 16.9c7.5 1.6 17.1 6.1 22.8 10.6l3.9 3.1-4 7.7c-4.8 9.5-7.9 21.4-7.9 30.3 0 6.3.2 6.9 3.2 9.4 2.5 2.1 3.8 2.5 6.2 2.1 4.6-.9 7.6-4.8 7.6-10.1 0-14.5 8.1-31.1 20-41 17.3-14.4 38.5-16.7 58.2-6.3 8.9 4.7 9.3 5.5 5.8 10.8-5.9 8.9-11 25.8-11 36.4 0 5.4 2.9 9.3 7.6 10.2 4.2.8 9.4-3.5 9.4-7.9 0-6.8 2.4-16.7 6.1-24.5 13.9-30 52-41.1 79.7-23.2l6.2 4-3.3 5.2c-6.7 10.5-10.7 23.9-10.7 35.9 0 5.2.3 6 3.2 8.4 2.5 2.1 3.8 2.5 6.2 2.1 4.6-.9 7.6-4.8 7.6-10.1 0-6.7 1.9-14.3 5.6-22.4 4.4-9.6 15.9-21.3 25.4-25.9 7.1-3.5 18-6.2 25-6.2 23.7 0 45.8 16.9 53.8 41 1.1 3.3 1.6 10.9 2 27.8.5 25.6.1 29.3-3 32.2-2.2 2-3.7 2-194.9 2-188.2 0-192.7 0-195-1.9-2.4-1.9-2.4-2.1-2.7-25.3-.4-26.7.4-33.2 5.3-43.3 11.5-23.8 36.5-36.4 61.7-31.1zm353.5 107.8c11.5 4.2 19.3 11.9 17.8 17.5-1.5 6-12.4 13-26.6 16.9-5 1.5-10.2 1.8-24.4 1.9-9.9 0-18.9-.3-19.9-.8-1.8-.7-1.8-.8.2-3 3.3-3.5 6.2-10.8 6.2-15.8v-4.7l9.3-.4c11.8-.5 19.3-3.7 24-10.4 3.4-4.8 3.5-4.8 13.4-1.2zm-431.6 2.2c2.2 2.4 6.1 5.5 8.7 6.8 4.5 2.2 5.8 2.3 35.2 2.8l30.5.5.3 3.2c.6 6.6-9.2 13.8-24.9 18.3-9.1 2.7-31.9 3.8-42.5 2.1-16.4-2.5-30.7-9.5-34.1-16.7-1.7-3.4-1.7-3.7.2-7.1 2.4-4.4 8.1-8.5 16-11.8 3.3-1.3 6.2-2.5 6.4-2.5.2 0 2.1 2 4.2 4.4zm169.7 13.1c.6 6.5-9.8 14.2-25.3 18.7-7 2-10.2 2.3-25.5 2.3-13.8 0-19-.4-24.8-1.9-4-1-7.1-2.1-6.9-2.5 3.1-5.8 5-11.5 5.1-15.4l.1-4.7 38.5.2 38.5.3.3 3zm103 .1c.6 5.9-6.7 12.1-19.3 16.7-10.9 3.9-20.6 5.1-36.8 4.4-14.3-.6-17.6-1.1-27.9-4.8l-5.6-2.1 1.9-4.1c1-2.3 1.9-6.3 1.9-9V269l42.8.2 42.7.3.3 3.1zm94.8-1.1c1.4 5.5-6.5 13.1-18 17.4-10.8 4-20.7 5.3-36.4 4.9-13.7-.4-28.9-3-27.9-4.7 3-5.5 4.9-11.3 5.1-15.2l.1-4.9H412l.6 2.5zM221 302c23.1 11.7 60.7 12.8 86.3 2.5l6.9-2.7 5.1 2.1c20.1 8.4 50.6 10.1 71.8 3.9 9.4-2.7 13.5-2.7 23.3 0 8.6 2.4 29.3 4.7 33.8 3.8 2.6-.5 2.8-.3 2.8 2.7 0 4.2-2.6 12.9-5.5 18.8-5.8 11.4-17.6 21.7-31 27l-6 2.4-151.9.3c-167.3.3-157.3.6-170.3-5.9-15.4-7.8-26.9-23.8-29.8-41.4l-.6-4 13.8-.1c15.5-.2 28.5-2.4 39.5-6.8l6.7-2.7 8.5 3c30.5 10.8 65.3 8.6 90.4-5.7.1-.1 2.9 1.1 6.2 2.8z"/>
  <path d="M304.2 314c-4.6 4.3-3.7 10.7 1.9 13.9 5.2 2.9 11.9-1.3 11.9-7.4 0-7.2-8.7-11.3-13.8-6.5zM101 320.7c-8.8 3.3-7.5 16.3 1.7 16.3 4.5 0 6.2-.9 7.9-4.2 1.8-3.4 1.1-7.8-1.4-10.1-2-1.8-6.1-2.8-8.2-2zM177.3 321c-3.5 1.5-5.6 5.5-4.9 9.5.8 4.2 3.9 6.5 8.7 6.5 4.6 0 7.9-3.6 7.9-8.5 0-5.4-6.6-9.6-11.7-7.5zM236.9 321.5c-3.7 2-5.2 6-3.9 10.1 1.3 4 3.5 5.4 8.3 5.4 8.1 0 11-11.7 3.7-15.5-3.5-1.8-4.7-1.8-8.1 0zM375.4 321c-8.8 3.6-6 16 3.5 16 7.1 0 10.7-8 5.9-13.4-2.6-2.9-6.3-3.9-9.4-2.6zM407.5 331.3c-3.8 3.2-3.8 9.2 0 12.4 5.5 4.8 13.9 1.1 13.9-6.2 0-7.3-8.4-11-13.9-6.2zM140.1 340.6c-3.2 4-2.8 8.7 1.1 11.9 3.9 3.3 8.1 2.9 11.7-1.2 1.8-2.1 2.2-3.4 1.7-6.2-.7-4.6-3.8-7.1-8.6-7.1-3 0-4.3.6-5.9 2.6zM200.5 340.5c-5.2 5.1-1.4 13.9 6 13.9 2.9 0 4.3-.7 6.1-2.8 4.9-5.6 1.3-13.6-6.1-13.6-2.5 0-4.4.8-6 2.5zM269.1 340.6c-4.7 5.9-.9 13.8 6.6 13.8 4.4 0 8.3-4 8.3-8.5 0-7.2-10.5-10.9-14.9-5.3zM329.5 340.5c-3.2 3.1-3.2 7.5-.1 11.1 7 8.3 19.2-2.4 12.5-11-2.8-3.6-8.9-3.7-12.4-.1z"/>
</svg>
