<svg height="512pt" viewBox="-113 0 512 512" width="512pt" xmlns="http://www.w3.org/2000/svg"><path d="m251.355469 0h-215.742188c-19.585937 0-35.613281 16.027344-35.613281 35.613281v440.773438c0 19.585937 16.027344 35.613281 35.613281 35.613281h215.742188c19.585937 0 35.613281-16.027344 35.613281-35.613281v-440.773438c0-19.585937-16.027344-35.613281-35.613281-35.613281zm0 0" fill="#8d909f"/><path d="m30.96875 476.386719v-440.773438c0-19.585937 16.023438-35.613281 35.613281-35.613281h-30.96875c-19.585937 0-35.613281 16.027344-35.613281 35.613281v440.773438c0 19.585937 16.027344 35.613281 35.613281 35.613281h30.96875c-19.589843 0-35.613281-16.027344-35.613281-35.613281zm0 0" fill="#75798a"/><path d="m30.96875 96.089844v326.621094c0 2.472656 2.171875 4.644531 4.644531 4.644531h215.742188c2.472656 0 4.644531-2.171875 4.644531-4.644531v-326.621094zm0 0" fill="#e4eaf8"/><path d="m61.875 422.710938v-326.621094h-30.90625v326.621094c0 2.472656 2.171875 4.644531 4.644531 4.644531h30.90625c-2.472656 0-4.644531-2.171875-4.644531-4.644531zm0 0" fill="#d8dce5"/><path d="m143.484375 451.097656c-9.675781 0-17.589844 7.917969-17.589844 17.59375 0 9.671875 7.914063 17.589844 17.589844 17.589844s17.589844-7.917969 17.589844-17.589844c0-9.675781-7.914063-17.59375-17.589844-17.59375zm0 0" fill="#75798a"/><path d="m150.617188 468.691406c0-4.867187 2.007812-9.285156 5.230468-12.480468-3.183594-3.152344-7.554687-5.109376-12.363281-5.109376-9.675781 0-17.589844 7.914063-17.589844 17.589844 0 9.675782 7.914063 17.589844 17.589844 17.589844 4.808594 0 9.179687-1.957031 12.363281-5.109375-3.222656-3.195313-5.230468-7.613281-5.230468-12.480469zm0 0" fill="#7e8292"/><path d="m162.152344 38.695312h-37.335938c-4.265625 0-7.726562-3.460937-7.726562-7.726562 0-4.269531 3.460937-7.726562 7.726562-7.726562h37.335938c4.265625 0 7.726562 3.457031 7.726562 7.726562 0 4.265625-3.460937 7.726562-7.726562 7.726562zm0 0" fill="#75798a"/><path d="m251.355469 61.933594h-215.742188c-2.472656 0-4.644531 2.171875-4.644531 4.644531v31.570313h225.03125v-31.570313c0-2.472656-2.171875-4.644531-4.644531-4.644531zm0 0" fill="#00c3ff"/><path d="m72.21875 61.933594h-36.605469c-2.472656 0-4.644531 2.171875-4.644531 4.644531v31.570313h41.25zm0 0" fill="#f25c5c"/><path d="m66.648438 61.933594h-31.035157c-2.476562 0-4.644531 2.171875-4.644531 4.644531v31.570313h31.035156v-31.570313c0-2.472656 2.171875-4.644531 4.644532-4.644531zm0 0" fill="#e54a4a"/><g fill="#c3c8d1"><path d="m162.152344 146.96875h-37.335938c-4.265625 0-7.726562-3.460938-7.726562-7.730469 0-4.265625 3.460937-7.726562 7.726562-7.726562h37.335938c4.265625 0 7.726562 3.460937 7.726562 7.726562 0 4.269531-3.460937 7.730469-7.726562 7.730469zm0 0"/><path d="m212.824219 348.886719h-138.679688c-4.265625 0-7.726562-3.457031-7.726562-7.726563 0-4.265625 3.457031-7.726562 7.726562-7.726562h138.679688c4.265625 0 7.726562 3.460937 7.726562 7.726562 0 4.269532-3.460937 7.726563-7.726562 7.726563zm0 0"/><path d="m212.824219 383.984375h-138.679688c-4.265625 0-7.726562-3.457031-7.726562-7.726563 0-4.269531 3.457031-7.726562 7.726562-7.726562h138.679688c4.265625 0 7.726562 3.457031 7.726562 7.726562 0 4.269532-3.460937 7.726563-7.726562 7.726563zm0 0"/></g><path d="m218.183594 179.976562c-5.765625 0-138.300782 0-150.398438 0-3.261718 0-5.910156 2.648438-5.910156 5.910157v102.632812c0 3.265625 2.648438 5.910157 5.910156 5.910157h150.398438c3.261718 0 5.910156-2.644532 5.910156-5.910157v-102.632812c0-3.261719-2.648438-5.910157-5.910156-5.910157zm0 0" fill="#fda537"/><path d="m92.78125 288.519531v-102.632812c0-3.261719 2.648438-5.910157 5.910156-5.910157-15.773437 0-27.664062 0-30.90625 0-3.261718 0-5.910156 2.648438-5.910156 5.910157v102.632812c0 3.265625 2.648438 5.910157 5.910156 5.910157h30.90625c-3.261718 0-5.910156-2.644532-5.910156-5.910157zm0 0" fill="#f9972d"/><path d="m146.515625 246.46875c-2.074219 1.628906-4.988281 1.628906-7.0625 0l-12.214844-9.589844-65.363281 51.640625c0 3.265625 2.648438 5.910157 5.910156 5.910157h150.394532c3.265624 0 5.910156-2.644532 5.910156-5.910157l-65.359375-51.640625zm0 0" fill="#feb644"/><path d="m67.785156 294.429688h30.90625c-3.261718 0-5.910156-2.644532-5.910156-5.910157v-24.417969l-30.90625 24.417969c0 3.265625 2.648438 5.910157 5.910156 5.910157zm0 0" fill="#fda537"/><path d="m218.183594 179.976562c-3.59375 0-146.113282 0-150.398438 0-3.261718 0-5.910156 2.648438-5.910156 5.910157l77.578125 60.910156c2.074219 1.625 4.988281 1.625 7.0625 0l77.578125-60.910156c0-3.261719-2.648438-5.910157-5.910156-5.910157zm0 0" fill="#ffc850"/><path d="m61.875 185.886719 30.90625 24.265625v-24.265625c0-3.261719 2.648438-5.90625 5.910156-5.910157-17.242187 0-29.683594 0-30.90625 0-3.261718 0-5.910156 2.648438-5.910156 5.910157zm0 0" fill="#feb644"/></svg>