<svg xmlns="http://www.w3.org/2000/svg" width="682.667" height="682.667" version="1.0" viewBox="0 0 512 512">
  <path d="M227 3.5C169.3 9 116.9 29.2 73 63c-12.6 9.7-34.7 32-44.1 44.5-9.2 12.1-18.3 26.9-24.1 39-4 8.3-4.3 9.6-4.3 17 0 6.7.5 9 2.9 14.2C8.6 189 20 197.5 33.7 200.2c3.2.7 6 1.3 6.1 1.4.2.2-4.1 6.3-9.7 13.8-13.5 18.1-14.5 19.8-13.8 24.7.7 5.2 5 10.8 9.9 12.7 2.1.8 3.8 1.8 3.8 2.1 0 .3-.5 3.3-1 6.6-2.1 12.8 2.7 26.8 12.3 36.3l5.4 5.4-5.4 5.4c-14.9 14.9-17 39.9-4.7 56.1l2.5 3.3H26.5c-14.3 0-17.4.9-22.2 6.3-4 4.6-4.8 8.5-3.9 20.1 2.2 29.6 13.8 56.2 33.6 77 19.3 20.4 44.1 33.3 72 37.6 9.7 1.5 292.1 1.4 295.4-.1 3.5-1.6 5-6.3 3.1-9.9-.8-1.5-2.2-3-3-3.4-.9-.3-65.9-.6-144.5-.6-124 0-143.9-.2-151.6-1.5-41-7.2-74.3-37.1-85.9-77.3-2.5-8.5-5.2-29-4.1-31.7.5-1.3 26-1.5 240.8-1.3l240.3.3-.3 9.7c-.6 24.7-12.5 51.2-31.7 70.3-9.3 9.4-19.8 16.6-32.9 22.5-9.3 4.2-11.6 6.4-11.6 10.9 0 2.9 4.2 6.1 8.1 6.1 4.8 0 23.6-9.4 33.4-16.8 29.6-22.3 47.5-55 50.1-91.5.8-11.9.1-15.8-3.9-20.4-4.8-5.4-7.9-6.3-22.2-6.3h-12.6l2.5-3.3c6.3-8.2 9.6-22.1 7.7-32.3-1.7-8.8-6.3-17.7-12.4-23.8l-5.4-5.4 5.4-5.3c9.7-9.6 14.6-24.2 12.4-36.4-.6-3.2-1.1-6.1-1.1-6.5 0-.3 1.5-1.2 3.4-1.8 7.4-2.7 12-11.5 9.7-18.4-.6-1.8-6.5-9.9-13.1-18-6.6-8-12-14.9-12-15.2 0-.3 1.5-.6 3.3-.6 13.2-.1 29-10.3 35.2-22.7 2.5-5 2.9-7 3-14.3 0-8.2-.2-8.9-4.8-18.4-10.9-22.6-24.5-41.5-44.2-61.2-14.8-14.9-26.6-24.6-42.9-35.1C364.9 13.7 294.9-2.9 227 3.5zM275.5 18c40.6 2.8 75.8 12.1 110.3 29.1 47.1 23.4 84.7 59.9 106.6 103.6 5.1 10.2 5.5 14 2.1 20.8-3 6.2-7.1 9.8-14.5 12.6-4.9 1.9-10.2 1.9-224 1.9H37.1l-5.7-2.1c-11.4-4.3-18.2-15-15.4-24.2 2.9-9.7 14.6-29.8 25.9-44.4 38.4-49.7 98.7-83.7 167.7-94.4 22.9-3.5 42.9-4.4 65.9-2.9zm188.9 201.2c8.1 10.1 14.8 18.7 14.7 19.2 0 .5-3.1 1.7-6.8 2.7-3.7.9-12.4 3.8-19.3 6.4-27.1 10.2-47.2 10.1-74.8-.4-18.5-7.1-26.2-8.4-45.7-7.8-17.7.5-22 1.4-41 8.7-14.6 5.6-24.9 7.4-39.5 6.7-12.8-.6-19.9-2.3-36.5-8.7-14.3-5.5-22.8-7-38.8-7-15.4 0-25.2 1.5-27.9 4.2-2.8 2.8-2.1 8.5 1.4 11.1 2.5 1.9 3.2 1.9 9.7.9 16-2.7 34.8-1 48.6 4.3 22.1 8.5 31.2 10.5 48 10.5 14.9 0 24.4-1.9 41-8 17.7-6.5 24.9-8 38.6-8 13.4 0 23.2 1.9 36.4 7.1 19.8 7.7 29.7 9.4 48.8 8.6 14.6-.6 23.1-2.4 37-8l8.7-3.5.6 2.5c1.2 4.4-.2 15.6-2.4 19.9-2.6 5.1-8.1 10-13.9 12.5-4.3 1.8-10 1.9-195.3 1.9-183.8 0-191-.1-195.2-1.9-10.2-4.4-15.9-12.3-16.5-23.5-.8-12.2-1-12.1 14.2-6.5 14.3 5.2 23.7 6.9 38 6.9 18.4 0 32.7-3.3 35.4-8.1 1.8-3.3.8-7.4-2.5-9.5-2.3-1.6-3-1.6-10 0-20.4 4.4-37.6 3.1-58.9-4.7-7.7-2.8-17.1-5.8-21-6.7-3.8-1-7-2.1-7-2.7 0-.5 6.1-9.1 13.5-19.1l13.5-18.1 195-.1h195.1l14.8 18.2zM178.3 329.7l79.7 18.7 2.8-2.1c4.5-3.4 3.8-11.3-1.2-12.9-1.2-.4-22.6-5.5-47.6-11.5l-45.5-10.8h115l115-.1-19.5 19.6c-10.7 10.7-20.7 20.2-22.2 21-4.5 2.4-9.7 1.7-38.6-5.1-15.2-3.6-28.8-6.5-30.1-6.5-3.4 0-7.1 3.7-7.1 7.1 0 5.9 1.5 6.6 31 13.5 15.1 3.5 28 6.6 28.5 6.8.6.3-60.9.4-136.5.3l-137.5-.2-5-2.7c-21.5-11.4-20.9-41 1-51.4 4.6-2.2 6.3-2.4 21.5-2.4h16.5l79.8 18.7zm273.2-16.3c10.4 4.8 16.8 14.7 16.7 26.1-.1 11.2-5.8 20.3-16.2 25.7l-4.5 2.3-46 .3-46 .2 5.5-2.5c4.5-2.1 9.9-7.1 30.9-28.5l25.4-26h14.6c13.2 0 15.1.2 19.6 2.4z"/>
  <path d="M141.8 63.7c-5.9 6.5-12.8 17.1-12.8 20 0 6 7.3 9.4 11.9 5.5C145 85.8 155 70.7 155 68c0-6.7-8.4-9.4-13.2-4.3zM277.3 62.7c-2.2 2-11.4 14.5-13.2 18-2.4 4.7 1.4 10.3 7 10.3 3.1 0 7.9-4.9 14.7-15.1 4.8-7.1 5-8.6 2.1-12.3-2.5-3.1-7.6-3.5-10.6-.9zM389.2 61.8c-.6.5-4.1 4.8-7.7 9.7-4.9 6.7-6.5 9.8-6.5 12.2 0 6.3 6.8 9.5 11.6 5.5 3.5-2.8 13.4-17.1 14-20 .8-4-2.8-8.2-6.9-8.2-1.8 0-3.8.4-4.5.8zM73.8 119.7c-4.4 4.9-11.8 15-12.8 17.8-2.1 5.4 3.2 10.7 9.3 9.1 3.1-.7 15.4-17.1 16.3-21.5.5-2.3.1-3.5-1.9-5.5-3.5-3.5-7.6-3.4-10.9.1zM192.3 126c-1.1.5-5.1 5-8.7 10.1-4.9 6.8-6.6 10-6.6 12.5 0 6.1 7 9.1 11.9 5.1 1.7-1.4 11.3-14.4 13-17.6 1.4-2.4.7-7.4-1.2-9-1.9-1.5-6-2.1-8.4-1.1zM439.9 134.3c-2.5 1.9-13.9 17.9-14.5 20.4-.7 2.8 1.9 7.1 4.9 8.2 4.1 1.5 7.4-.8 13.7-9.5 6.7-9.2 8.3-13 6.8-16-2.3-4.3-7.5-5.8-10.9-3.1zM326.8 142.1c-3.2 1.8-14.8 19-14.8 21.9 0 6.5 8.6 9.2 13.1 4.2 3.1-3.4 10.2-13 11.7-15.9 3.8-7-3.2-14.2-10-10.2z"/>
</svg>
