<svg xmlns="http://www.w3.org/2000/svg" width="682.667" height="682.667" version="1.0" viewBox="0 0 512 512">
  <path d="M197.5 18.5c-1.4 1.3-2.5 3.6-2.5 5s1.1 3.7 2.5 5l2.4 2.5h55.5c60.8 0 67.2.4 89.2 6 65.3 16.5 118.1 63.9 141.8 127.2 4.2 11.3 9.3 31.5 10.2 40.2.5 5.4.3 6.7-2.3 11.6-2.1 4-4.2 6.3-7.8 8.5l-4.8 3H30.5l-4.7-2.8c-5.2-3-9.5-9.3-10.5-15-.3-1.8.5-8.4 1.6-14.6 6.1-31.7 22.3-65.6 43.7-91.2C86.3 73 124.4 48.4 162.2 38.3c12.3-3.3 15-5.2 14.6-10.1-.2-2.4-1.1-4.1-3-5.5-2.5-1.9-3.1-1.9-8.5-.8-27.6 6.2-61.9 23.2-86.3 42.8-9.8 7.9-28.9 27.7-36.4 37.6C21.4 130.7 7.3 163 1 198.3c-2.8 15.5 3.2 30.8 14.8 37.8 2 1.2 3.8 2.3 4 2.4.1.1-.7 2.2-1.8 4.6-2.4 5.3-2.6 14.5-.5 19.6 1.5 3.6.9 5.2-1.8 5.3-.4 0-3 2-5.6 4.5C3.4 278.8.6 285.4.5 295c0 11.4 4.6 20.3 13.5 26.1 2.7 1.8 5 3.4 5 3.6 0 .2-.7 2.7-1.6 5.4-2.4 7.3-1.5 18.8 1.9 25.6l2.7 5.2-4.4 2C11.9 365.4 6 371.3 3 377.5 1 381.6.6 384.1.6 391c0 7.3.4 9.2 2.7 13.6 1.4 2.9 4.8 7.1 7.6 9.5l4.9 4.4.4 14c.3 12.1.8 15 3.1 21.5 6.5 18.1 21.9 33.2 39.9 39.1l7.3 2.4h379l7.4-2.4c18.1-5.9 33.3-21 39.8-39.2 2.3-6.3 2.7-9.5 3.1-21.4l.4-14 5.3-4.7c7.3-6.6 10-12.9 9.9-23.3 0-6.3-.5-9-2.4-13-3-6.2-8.9-12.1-14.6-14.6l-4.4-2 2.7-5.2c3.4-6.8 4.3-18.3 1.9-25.6-.9-2.7-1.6-5.2-1.6-5.4 0-.2 2.1-1.7 4.6-3.3 4.8-3.1 10.1-9.6 12.5-15.4 2.3-5.6 1.8-17.5-1-23.7-2.1-4.7-10.7-14.3-12.8-14.3-2.7-.1-3.3-1.7-1.8-5.3 2.1-5.1 1.9-14.3-.5-19.6-1.1-2.4-1.9-4.5-1.8-4.6.2-.1 2-1.2 4.1-2.5 5.7-3.4 11.3-11.1 13.7-18.7 2.4-7.8 2.5-11.3.5-21.6-8.3-43.4-27.4-80.7-57-111.6-19.3-20.1-38.6-34.3-63-46.1-16.3-8-26.4-11.6-43.6-15.9-22.6-5.6-30.3-6.1-91.5-6.1h-55.5l-2.4 2.5zm280.6 227.4c4.8 4.9 3.4 14.2-2.6 16.9-1.9.9-14.5 1.2-46.1 1.2h-43.5l-2.4 2.5c-3 2.9-3.2 6.4-.6 9.6l1.9 2.4 50.9.5 50.8.5 3.3 2.3c7 5 9.2 15.6 4.5 22.1-2.3 3.1-13.5 11-21 14.7-4.5 2.2-6.3 2.6-11.7 2.2-5.3-.3-7.4-1-12.3-4.1-3.2-2.1-8.7-5.2-12.3-7-5.8-2.8-7.4-3.1-15.5-3.1s-9.7.3-15.5 3.1c-3.6 1.8-9.1 4.9-12.2 6.9-10.2 6.5-18.5 6.1-30.4-1.8-4.3-2.7-9.4-5.6-11.4-6.3-10.8-3.8-23.3-2.6-32.7 3.3-18.9 11.7-25 12.1-38.7 2.9-15.3-10.3-31.4-11.2-45.1-2.5-2.7 1.8-7.4 4.5-10.4 6-9.2 4.8-17.3 3.6-28.6-4.2-8.7-6-13.1-7.4-23-7.3-10.5 0-14.5 1.3-24.2 7.6-14.1 9.1-21.1 9.1-35.3 0l-5.9-3.8V300c-.1-12.3 1.4-16.5 6.9-19.2 3.3-1.7 11.3-1.8 123.4-1.8h120l2.3-2.2c3.3-3 3.1-8-.3-10.7-2.7-2.1-2.8-2.1-122.9-2.1-133.2 0-126.2-.3-134.3 6.6-2.4 2-5.5 5.9-7 8.8-2.7 5.1-2.7 5.2-3 29.1-.3 22.8-.5 24.1-2.4 26.2-2.7 2.9-7.7 3-10.9.4-2.4-1.9-2.4-2.1-2.9-26.8-.6-27.8-.6-28.1-8.3-36.1-5.5-5.7-12.4-8.2-22.5-8.2-10.9 0-15.1-3-15.2-10.8 0-3.5.6-4.9 2.9-7.3l2.9-2.9h438.4l2.9 2.9zm-422 35.4c5.3 3.6 5.9 5.6 5.9 21.8v14.7l-4 1.6c-5.4 2.2-13.6 2-18.5-.3-6.5-3.1-19.7-12.4-21.9-15.4-1.6-2.1-2.1-4.4-2.1-8.7 0-6.9 2-10.3 8.1-13.7 3.5-2 5.3-2.3 16.5-2.3 11.5 0 12.9.2 16 2.3zM179 322c1.9.5 7.1 3.2 11.5 6 10.3 6.5 16.6 8.4 26.4 7.8 8.3-.5 13.5-2.5 24.8-9.6 3.4-2.2 8-4.2 10.3-4.6 6.3-1 11.5.3 18.3 4.6 11.3 7.1 16.5 9.1 24.8 9.6 9.8.6 16.1-1.3 26.4-7.8 4.4-2.8 9.6-5.5 11.5-6 4.3-1.2 9.3-1.3 8.8-.2-.5 1.4-84.8 76.7-85.8 76.7-.9 0-85.3-75.3-85.8-76.7-.5-1.1 4.5-1 8.8.2zm249.1.3c2.4.8 7.9 3.7 12.1 6.4 4.3 2.9 10 5.6 12.9 6.3 6 1.5 19 .8 23.2-1.1 3.9-1.8 4.9-.1 4.5 7.7-.4 7-3 11.6-8.6 15.5l-3.6 2.4-73 .2-73.1.2 4.1-3.7c2.2-2 9.9-9 17.1-15.4l13-11.8 6.2 3.1c5 2.5 7.9 3.2 14.5 3.6 10 .7 16.7-1.1 24.6-6.3 12.6-8.3 17.5-9.7 26.1-7.1zm-312.6 10.2c10.7 5.1 25.7 4.4 36-1.6l3.5-2.1 13.2 11.9c7.2 6.5 15 13.5 17.2 15.5l4.1 3.7-73.1-.2-73-.2-3.6-2.4c-5.6-3.9-8.2-8.5-8.6-15.5-.4-8 .5-9.4 5-7.5 3.5 1.5 18 1.9 23.3.7 2.9-.6 3.1-.4 4.9 3.7 2 4.9 7.2 10 12.2 12.1 4.6 1.9 13.1 1.7 17.9-.5 7.3-3.3 13.4-11.7 13.5-18.4 0-1.6.3-2.7.8-2.5.4.2 3.4 1.7 6.7 3.3zm107.3 57.1c8.9 8 16.2 14.9 16.2 15.2 0 .4-3.6 3-8.1 5.9-12.9 8.3-20.3 8.2-33.9-.7-8.8-5.7-11.8-7-16.7-7-4.8 0-7.3 2.4-7.3 7 0 4.2 1.7 6.1 7 7.9 1.9.6 6.1 2.9 9.5 5.1 18 11.7 31.7 11.9 49.3.5 13.5-8.7 20.9-8.7 34.5.1 18.2 11.8 31 11.2 52.5-2.6 6-3.8 13.6-5 19.7-3 2 .7 7.2 3.4 11.4 6.1 14.9 9.5 29 10.2 42.5 2.3 14-8.2 16.8-9.4 22-9.4 5.6 0 11.1 2.2 18.1 7 6.8 4.7 12.3 6.8 19.5 7.5 6 .6 14.8-.7 20.3-3 1.5-.6 1.7 0 1.7 5.8 0 18.5-12.6 36.6-30.7 43.9l-5.8 2.3-186.5.3c-183.2.2-186.6.2-193-1.7-6.8-2.1-14.4-6.4-19.4-11-4.6-4.2-10.5-13.9-12.6-20.9-1.7-5.4-2.8-19.2-1.6-19.2.2 0 1.9.6 3.7 1.4 9.9 4.1 24.1 2.7 33.6-3.2 3.2-2 8.2-4.8 11.2-6.4 9.1-4.8 17.3-3.6 28.6 4.2 10.6 7.3 21.2 9.4 32.5 6.6 10.4-2.6 14.8-7.3 12.2-13.1-1.9-4.1-5.5-4.9-12.3-2.5-10 3.4-14.4 2.6-26.4-5-10.3-6.5-16.6-8.4-26.4-7.8-8.3.5-13.4 2.5-25 9.7-11.6 7.4-18.5 6.7-34-3.4-12-7.8-13.6-9.9-13.6-17.6 0-6.4 1.8-9.8 7.5-13.7l3.3-2.2h180.2l16.3 14.6zM489 377.2c5.7 3.9 7.5 7.3 7.5 13.7 0 7.7-1.6 9.8-13.6 17.6-15.5 10.1-22.4 10.8-34 3.4-11.6-7.2-16.7-9.2-25-9.7-9.8-.6-16.1 1.3-26.4 7.8-15.2 9.6-20.1 9.4-37.5-1.6-7-4.4-13.7-6.4-21.5-6.4-8.4 0-14.1 1.9-23.4 7.9-14.1 9-21 9.2-34 .8-4.5-2.9-8.1-5.5-8.1-5.9 0-.3 7.3-7.2 16.3-15.2l16.2-14.6h180.2l3.3 2.2z"/>
  <path d="M136.5 93.9c-1.1.5-5.9 4.9-10.7 9.9-7.7 7.8-8.8 9.4-8.8 12.5 0 3.9 3.6 7.7 7.3 7.7 3.2 0 22.7-19.9 22.7-23.2 0-5.1-5.8-8.9-10.5-6.9zM259.5 94.9c-1.6 1-6.5 5.4-10.7 9.9-8.8 9-9.8 12.2-5.3 16.7 4.5 4.6 7.9 3 19.3-8.9 9.2-9.6 10.2-12.6 5.7-17.1-2.9-3-5-3.1-9-.6zM375.4 103.2c-11.2 11-12.3 13.3-8.5 17.9 1.3 1.7 2.9 2.3 5.6 2.3 3.3 0 4.5-.9 13.1-9.6 8.3-8.4 9.4-9.9 9.4-13.1 0-3.9-3.6-7.7-7.3-7.7-1.2 0-6.1 4.1-12.3 10.2zM181 155c-1.2 1.2-2 3.3-2 5.3 0 2.9 1.3 4.6 9.9 13 10.8 10.7 13.7 11.9 17.9 7.4 4.2-4.5 3.1-7.1-7.5-17.8-8.4-8.6-10.1-9.9-13-9.9-2 0-4.1.8-5.3 2zM305 155c-1.2 1.2-2 3.3-2 5.2 0 2.7 1.5 4.7 9.8 13 8.1 8.1 10.3 9.8 12.8 9.8 4.1 0 7.4-3.3 7.4-7.3 0-2.8-1.4-4.7-9.8-13-8.3-8.3-10.2-9.7-13-9.7-1.9 0-4 .8-5.2 2z"/>
</svg>
