<svg xmlns="http://www.w3.org/2000/svg" width="682.667" height="682.667" version="1.0" viewBox="0 0 512 512">
  <path d="M328.5 2.5c-37.9 11.2-63 32.9-75 64.7-1.5 4-2.2 4.8-4.2 4.8-1.4 0-5.1.7-8.2 1.5-5.7 1.5-5.8 1.5-13.7-1.9-16.6-7-23.2-8.1-48.7-8.1h-22.9l-2.4 2.8c-5.1 5.9-1.8 13 6.5 14.2 21.7 3 12 43.3-13.6 56.8-16.2 8.5-30.8 21.3-39.4 34.5-6.7 10.2-9.1 17-9.7 27.3-.5 10.5 1.2 16.7 6.8 23.7l3.7 4.8-7.4 3.8c-13.5 7-23 19.2-26.9 34.5-1.2 4.7-1.5 9.5-1.2 18 .5 13.1 3.1 22.3 8.7 30.6 1.7 2.5 3.1 4.8 3.1 5.1 0 .2-1.8.4-4 .4-4.4 0-8 2.9-8 6.4 0 3.5 7.1 30.7 28.1 107.6 14.5 53.1 20.7 74.1 22.2 75.7l2 2.3h132.2c125.7 0 132.3-.1 133.8-1.8 2.4-2.6 50.9-181 50.1-184.4-.8-3.8-4-5.8-9.2-5.8h-4.4l2.7-3.1c12.4-14.8 14.2-41.4 4.4-65.1-10.4-25.2-34.3-45.4-60-50.7l-5.6-1.2-1.2-6.5c-2.4-13.3-9.1-26.5-19-37.6-5.6-6.2-18.2-15.7-28.1-21l-8-4.3v-5c0-21.3-16.4-43.4-37.4-50.7-3.1-1-5-2.2-4.8-3 1-3.9 7.3-14.7 11.7-20.2 13.3-16.7 32.1-27.8 56.7-33.6 10.9-2.5 13.8-4.6 13.8-10 0-1.9-.7-4.6-1.6-5.8C349.1.3 348 0 342.7.1c-3.5 0-9.8 1.1-14.2 2.4zm-127.3 79c4 .9 9.4 2.2 12.1 3.1l4.7 1.6-4.8 5.2c-9 9.9-13.7 22.8-13.6 37.6.1 15.5 5.6 28.5 16.8 39.5 14 13.8 31.9 19 51 15 8.7-1.8 17.6-6 24.3-11.3 5.5-4.4 13.6-15 15.4-20.1.6-1.7 1.7-3.1 2.4-3.1 2.8 0 19.4 12.2 25.6 18.7 10.4 11 15.9 23.9 15.9 37 0 7.1-1.4 9.3-7.6 12.3-15.1 7-37.6 9.4-90.4 9.3-44.6 0-106.7-2.6-117.1-4.8-22.9-4.8-28.3-20.4-14.1-41.1 7.4-11 17.4-19.3 35.2-29.5 17.5-10 29.5-28.8 31.5-49.6.6-6.2-.3-15.1-2-19.6-.6-1.4-.1-1.7 3.3-1.7 2.3 0 7.4.7 11.4 1.5zM248 95c0 6.4 2.3 9 8 9 5.3 0 7.7-2.5 8.6-9 .4-2.7 1.2-5 1.8-5 .6 0 3.8 1.3 7.1 2.8 7.8 3.7 14.6 10.6 18.7 19 3 6.1 3.3 7.4 3.3 16.2 0 9.1-.2 10-3.8 17.2-7.8 15.9-24.9 25-41.2 21.8-17.3-3.4-29.5-15.6-32.7-32.8-3-16.2 6.8-34.5 22.4-41.7 7.4-3.5 7.8-3.3 7.8 2.5zm129.5 124.7c30 9.2 52.3 47.4 44.1 75.7-3 10.1-11.5 18.7-22.2 22.2-5.7 1.8-10 1.9-145.9 1.9h-140l-4.6-2.1c-10-4.7-17.8-16.2-19.9-29.7-2.7-17.3 5.7-34.6 20.3-41.6 9.6-4.6 14.7-5.2 42.2-5.2 14.3.1 28.5.3 31.5.6s23.5 1 45.5 1.6c85.8 2.2 123.1-3.7 135.8-21.8 3.3-4.7 3.2-4.7 13.2-1.6zM137 336.8c0 .4 6.1 35.8 13.5 78.6s13.5 78.5 13.5 79.2c0 1.2-2.6 1.4-14.7 1.2l-14.8-.3-21.7-79.5c-11.9-43.7-21.7-79.6-21.8-79.8 0-.1 10.4-.2 23-.2 12.7 0 23 .4 23 .8zm71-.2c0 2.1 9.1 147.3 9.5 152.6l.6 6.8h-18c-17.9 0-18.1 0-18.6-2.3-.3-1.2-6.4-36.2-13.5-77.7-7.2-41.5-13.3-76.5-13.5-77.8l-.5-2.2h27c14.8 0 27 .2 27 .6zm78.6 7.1c-.4 4.3-2.4 37-4.6 72.8-2.2 35.7-4.2 68.3-4.5 72.2l-.7 7.3h-41.6l-.7-7.3c-.3-3.9-2.3-36.5-4.5-72.2-2.2-35.8-4.2-68.5-4.6-72.8l-.6-7.7h62.4l-.6 7.7zm70.9-5.5c-.2 1.3-6.3 36.3-13.5 77.8-7.1 41.5-13.2 76.5-13.5 77.7-.5 2.3-.7 2.3-18.6 2.3h-18l.6-6.8c.4-5.3 9.5-150.5 9.5-152.6 0-.4 12.2-.6 27-.6h27l-.5 2.2zm63.5-2c-.1.2-9.9 36.1-21.8 79.8l-21.7 79.5-14.8.3c-12.3.2-14.7 0-14.7-1.2 0-.8 6.1-36.4 13.5-79.2 7.4-42.7 13.5-78.1 13.5-78.5 0-.5 10.4-.9 23-.9 12.7 0 23 .1 23 .2z"/>
</svg>
