<svg xmlns="http://www.w3.org/2000/svg" width="682.667" height="682.667" version="1.0" viewBox="0 0 512 512">
  <path d="M159.5 16.4c-4.9 4.9-4.5 11 1.1 16.3 4.4 4.2 6.7 9.5 5.8 13.7-.4 2-3.1 5.5-7.8 10.1-4 3.8-8.2 9-9.4 11.5-5.9 12.2-4.8 25.8 2.9 36.5 6.7 9.3 15.6 12.2 21.6 7.1 2.4-2.1 2.8-3.2 2.8-7.5 0-4.6-.4-5.4-4.3-9.4-7.3-7.4-7.4-14.6-.5-20.9 10.6-9.5 13.6-14.2 15.5-24.6 2.9-15.7-8.7-35.2-20.9-35.2-3.3 0-5 .6-6.8 2.4zM249.5 16.4c-4.9 4.9-4.5 11 1.1 16.3 4.5 4.2 6.7 9.5 5.8 13.7-.4 2-3.2 5.6-7.9 10.3-4 3.9-8.2 9.1-9.4 11.5-5.8 12-4.6 25.6 3 36.3 6.7 9.3 15.6 12.2 21.6 7.1 2.4-2.1 2.8-3.2 2.8-7.5 0-4.6-.4-5.4-4.3-9.4-7.3-7.4-7.4-14.6-.5-20.9 10.6-9.5 13.6-14.2 15.5-24.6 2.9-15.7-8.7-35.2-20.9-35.2-3.3 0-5 .6-6.8 2.4zM339.5 16.4c-5 5-4.5 10.8 1.5 16.7 2.2 2.2 4.4 5.7 5.1 7.8 1 3.4.9 4.5-1 8.3-1.2 2.3-3.7 5.4-5.6 6.8-4.5 3.2-10.1 10.6-12.1 16.1-2.1 5.7-2.1 18.1 0 23.7 5.4 14.6 18.5 22.5 26.3 15.8 2.4-2.1 2.8-3.2 2.8-7.5 0-4.6-.4-5.4-4.3-9.4-7.3-7.4-7.4-14.6-.5-20.9 10.6-9.5 13.6-14.2 15.5-24.6 2.9-15.7-8.7-35.2-20.9-35.2-3.3 0-5 .6-6.8 2.4zM307 171c-85.9 4.5-216.6 18-242.8 25.1-27.3 7.3-51.2 30.3-60 57.9-4.2 12.9-4.3 16.2-4 75 .3 53.2.4 56.8 2.3 61 4.8 11.2 13.7 21.5 22.6 26 6.3 3.3 19.1 7.5 28.9 9.6 6.8 1.5 12.6 1.9 28.5 1.8 17.7 0 22.2-.4 39-3.3 10.5-1.7 22.2-3.4 26-3.8 19.3-1.6 41.2 6.9 86 33.2 31.5 18.5 49.2 26.7 73 33.9 24.6 7.5 45.8 10.7 71.5 10.7 20.2 0 36.3-1.9 53.1-6.1 25.1-6.2 38.8-13.7 54.4-29.4 11.6-11.7 17.7-21.3 22.7-35.7l3.3-9.4.3-61.5c.2-43.6 0-63.7-.8-69-4.4-28-18.9-54.7-40.7-74.9-21.5-20-48.8-33.5-79.3-39.1-9.6-1.8-16.1-2.2-39.5-2.5-15.4-.2-35.4.1-44.5.5zm81.6 23c43.8 8.8 78.9 35.5 94.4 71.8 8.5 20 10 33.8 6.8 60.9-.6 5.1-1.3 9.3-1.7 9.3-.3 0-33.2-32.7-73.1-72.6l-72.5-72.6 18 .6c12 .3 21.4 1.2 28.1 2.6zm8 82.1 84.2 84.2-1.5 3.6c-5.9 14.1-21.6 30.9-36.4 39.1l-5.4 2.9-46-45.9-46.1-46h-4.5c-7.2 0-11.4 5.3-10.1 12.7.3 2 12.2 14.6 42.5 45l42 42.1-5.6 1.2c-22.1 4.6-54.6 2.3-80-5.6l-8.2-2.6-99.2-99.1c-54.6-54.5-99.1-99.2-99-99.3.2-.3 38-4.5 61.5-7l16.4-1.7 38.6 38.6c42.2 42 42 41.9 49.2 38.2 3.7-1.9 6.4-7.5 5.5-11.4-.4-1.6-12.9-14.9-33.3-35.4-26.1-26.1-32.2-32.7-30.3-32.7 1.3 0 11.2-.7 22-1.5 21.3-1.7 44.1-3.1 53.6-3.4l6-.1 84.1 84.1zM177 292.5l80.5 80.5-17.5-8.8c-34.7-17.5-56.5-23.9-84.5-24.8l-15-.5-51.2-51.2L38 236.6l3.3-3.4c4.5-4.7 15.5-11.9 22.7-14.8 5.5-2.2 23.6-6 30-6.3 2-.1 17.5 14.9 83 80.4zm-64.8 50.6c-.4.4-6 1.5-12.5 2.4-27.7 4.1-45.8-1.2-61.4-17.9-16.5-17.6-22-46.2-13.3-69l1.1-3L69.5 299c23.9 23.9 43.1 43.7 42.7 44.1zM37 354.7c7 4.7 14.2 8.1 22.7 10.5 12.5 3.6 32 3.2 58.3-1.2 24.6-4.1 45-4.7 58-1.7 24.6 5.7 50.1 17.3 90 40.7 21.5 12.6 34.2 18.7 51.3 24.5 52.4 17.7 105 14.1 141.7-9.6 10.3-6.7 23.4-19.1 29.4-27.9l3.8-5.5-.6 13c-.8 18.6-3.7 27.7-13.3 41.2-18 25.3-52.2 38.4-100.3 38.4-44.4-.1-82.7-11.7-129-39.2-42-24.9-64.1-34.6-86-38-9.7-1.5-20.2-.7-43.6 3.3-16.4 2.8-21.3 3.2-36.9 3.2-19.7.1-27.3-1.1-41.5-6.5-8.8-3.4-14.8-8.8-18.1-16.3-2-4.6-2.3-7.1-2.7-24.6l-.4-19.5 6.3 6.1c3.5 3.3 8.4 7.4 10.9 9.1z"/>
  <path d="M308.3 286.5c-3.1 1.3-6.3 5.9-6.3 9 0 3.1 3.1 8.2 5.6 9.4 10.7 4.8 20.5-7.4 12.7-15.8-3.4-3.6-7.7-4.5-12-2.6z"/>
</svg>
