<?xml version="1.0" standalone="no"?>
<!DOCTYPE svg PUBLIC "-//W3C//DTD SVG 20010904//EN"
 "http://www.w3.org/TR/2001/REC-SVG-20010904/DTD/svg10.dtd">
<svg version="1.0" xmlns="http://www.w3.org/2000/svg"
 width="350.000000pt" height="200.000000pt" viewBox="0 0 350.000000 200.000000"
 preserveAspectRatio="xMidYMid meet">

<g transform="translate(0.000000,200.000000) scale(0.100000,-0.100000)"
fill="#000000" stroke="none">
<path d="M822 1771 c-29 -15 -31 -19 -19 -30 12 -10 19 -6 37 19 12 16 20 30
18 30 -2 -1 -18 -9 -36 -19z"/>
<path d="M922 1770 c-16 -26 -6 -46 14 -29 15 12 20 49 6 49 -4 0 -13 -9 -20
-20z"/>
<path d="M677 1715 c-4 -8 -2 -17 3 -20 6 -4 10 3 10 14 0 25 -6 27 -13 6z"/>
<path d="M600 1670 c0 -9 -13 -30 -30 -48 -33 -37 -35 -43 -18 -60 8 -8 15 -9
25 -1 10 9 15 6 22 -12 9 -22 10 -22 10 -3 1 11 10 30 21 42 13 14 16 23 9 28
-6 3 -17 20 -25 38 -7 17 -13 24 -14 16z"/>
<path d="M743 1667 c-9 -11 -24 -57 -19 -57 1 0 12 13 24 29 21 28 15 55 -5
28z"/>
<path d="M1136 1613 c-39 -73 -42 -83 -25 -100 8 -8 5 -20 -13 -45 -14 -18
-40 -61 -59 -96 l-34 -63 23 -19 c20 -17 26 -17 55 -6 62 26 80 29 72 15 -6
-11 -5 -12 6 -1 19 17 43 15 63 -7 27 -30 61 -34 105 -12 70 36 95 35 152 -4
45 -31 57 -35 111 -33 35 1 53 5 42 8 -16 6 -14 8 11 13 57 10 106 8 157 -8
61 -18 61 -18 53 -5 -3 6 0 10 7 11 27 1 -88 37 -123 38 -20 1 -62 -8 -94 -19
-57 -20 -58 -20 -99 -1 -22 11 -52 29 -66 41 l-25 22 35 -22 c75 -46 95 -51
140 -35 60 21 63 25 40 45 -11 9 -20 22 -20 28 0 6 -16 16 -35 22 -19 6 -68
36 -109 66 -84 61 -131 84 -176 84 -31 0 -38 8 -20 26 7 7 1 11 -19 11 -17 0
-28 -5 -24 -10 3 -5 -3 -6 -15 -3 -12 4 -23 2 -28 -5 -5 -8 -3 -10 7 -4 8 5
10 4 6 0 -4 -5 -13 -10 -20 -11 -7 -1 -26 -5 -43 -9 -62 -14 -64 41 -4 126 12
16 17 29 11 29 -5 0 -26 -30 -45 -67z m155 -149 c14 -17 5 -40 -24 -58 -13 -8
-22 -6 -38 10 -17 18 -19 25 -10 43 14 25 53 28 72 5z m-106 -3 c7 -12 -12
-24 -25 -16 -11 7 -4 25 10 25 5 0 11 -4 15 -9z m19 -58 c4 -9 0 -23 -9 -32
-13 -14 -17 -14 -31 1 -9 9 -14 24 -11 32 8 21 43 20 51 -1z"/>
<path d="M1073 1618 c-19 -25 -35 -61 -24 -54 6 4 18 20 26 37 16 30 15 38 -2
17z"/>
<path d="M777 1585 c-19 -41 -22 -78 -7 -106 14 -25 46 -27 34 -1 -5 9 -9 45
-9 80 1 34 0 62 0 62 -1 0 -9 -16 -18 -35z"/>
<path d="M986 1594 c-23 -23 -20 -30 4 -9 11 10 20 20 20 22 0 7 -9 2 -24 -13z"/>
<path d="M880 1570 c-15 -37 -7 -60 20 -60 20 0 20 1 6 22 -9 12 -13 31 -10
45 9 33 -1 29 -16 -7z"/>
<path d="M1349 1570 c-6 -4 20 -5 57 -3 38 3 71 7 74 10 8 7 -118 0 -131 -7z"/>
<path d="M1508 1573 c7 -3 16 -2 19 1 4 3 -2 6 -13 5 -11 0 -14 -3 -6 -6z"/>
<path d="M983 1533 c-22 -8 -14 -23 12 -23 18 0 23 4 19 15 -6 16 -11 17 -31
8z"/>
<path d="M531 1518 c-1 -9 -7 -23 -14 -30 -10 -11 -10 -16 4 -29 15 -15 18
-15 32 2 10 12 12 21 6 25 -6 3 -14 16 -19 28 -7 16 -9 17 -9 4z"/>
<path d="M666 1507 c-5 -15 -6 -31 -2 -34 11 -11 18 5 14 34 l-4 28 -8 -28z"/>
<path d="M1695 1460 c-3 -5 1 -10 10 -10 9 0 13 5 10 10 -3 6 -8 10 -10 10 -2
0 -7 -4 -10 -10z"/>
<path d="M1741 1422 c-8 -15 -7 -23 4 -32 21 -18 47 -4 43 22 -4 29 -34 35
-47 10z"/>
<path d="M661 1279 c-41 -10 -77 -22 -80 -25 -3 -4 5 -4 19 0 134 34 219 29
252 -15 18 -24 19 -28 4 -64 -16 -38 -16 -38 3 -21 25 23 43 68 39 97 -7 51
-106 63 -237 28z"/>
<path d="M1000 1237 c1 -7 10 -23 20 -36 19 -22 22 -22 53 -9 26 13 81 14 317
11 157 -3 303 -5 325 -6 88 -3 185 3 185 12 0 14 -81 24 -165 20 -102 -5 -211
-5 -350 0 -60 2 -159 1 -220 -2 -60 -2 -114 -1 -120 3 -21 15 -45 19 -45 7z"/>
<path d="M1264 1166 c-18 -14 -18 -14 0 -13 13 1 22 -7 27 -26 10 -36 27 -57
48 -57 9 0 33 -5 53 -10 29 -9 37 -16 40 -38 3 -24 8 -27 40 -28 24 -1 42 4
50 15 11 14 11 14 -3 4 -12 -10 -18 -10 -27 -1 -15 15 -16 31 0 22 7 -5 8 -3
4 5 -5 7 -14 10 -22 7 -7 -3 -16 0 -20 5 -4 7 19 10 70 7 42 -2 76 0 76 3 0 4
18 9 39 13 47 7 159 -30 141 -48 -27 -27 4 -70 43 -61 26 7 26 8 10 21 -15 11
-15 13 -2 8 13 -4 15 0 12 20 -3 14 -10 26 -15 26 -19 0 19 28 43 32 19 2 25
10 27 36 6 56 -58 92 -104 57 -19 -14 -19 -14 1 -15 18 -1 17 -2 -5 -15 -27
-15 -54 -20 -47 -7 3 4 -8 7 -23 8 -15 1 -42 11 -60 24 -25 18 -40 21 -77 17
-24 -2 -50 -10 -56 -16 -9 -9 -8 -11 6 -6 9 4 17 3 17 -3 0 -23 -57 -22 -135
3 -92 28 -123 31 -151 11z"/>
<path d="M1026 1161 c-4 -5 -1 -22 4 -36 6 -15 8 -36 5 -46 -4 -12 -1 -21 9
-25 12 -4 13 -11 6 -24 -7 -13 -6 -20 6 -24 27 -10 58 -6 79 10 20 16 20 16
-2 10 -12 -4 -24 -2 -29 5 -4 8 -3 9 4 5 7 -4 12 -1 12 8 0 9 -6 16 -12 16
-12 1 42 24 87 37 20 7 44 31 45 46 0 5 -4 5 -10 2 -5 -3 -23 1 -39 10 -40 20
-110 19 -141 -2 -22 -16 -23 -16 -17 0 7 18 2 23 -7 8z"/>
<path d="M134 1108 l-19 -23 23 19 c12 11 22 21 22 23 0 8 -8 2 -26 -19z"/>
<path d="M814 1108 l-19 -23 23 19 c21 18 27 26 19 26 -2 0 -12 -10 -23 -22z"/>
<path d="M2139 1058 c-16 -26 -19 -44 -15 -82 3 -27 1 -57 -5 -68 -17 -32 9
-11 31 24 14 24 16 35 7 58 -8 20 -8 39 0 64 14 45 9 46 -18 4z"/>
<path d="M92 1053 c-43 -61 -63 -114 -60 -156 5 -65 22 -50 29 24 3 44 14 81
31 112 30 52 29 61 0 20z"/>
<path d="M1244 1042 c-17 -11 -22 -57 -7 -70 15 -15 17 -68 3 -75 -6 -3 -5 -4
2 -3 6 1 21 15 32 29 18 25 19 30 6 50 -7 12 -16 34 -19 49 -4 17 -10 25 -17
20z"/>
<path d="M1879 943 c-13 -16 -12 -17 4 -4 16 13 21 21 13 21 -2 0 -10 -8 -17
-17z"/>
<path d="M1110 905 c-17 -25 -29 -45 -26 -45 3 0 19 20 36 45 17 25 29 45 26
45 -3 0 -19 -20 -36 -45z"/>
<path d="M1662 941 c-10 -6 -10 -10 2 -21 9 -7 13 -17 9 -24 -3 -6 6 0 20 13
15 13 24 28 21 32 -7 11 -35 11 -52 0z"/>
<path d="M1986 935 c-11 -8 -14 -15 -8 -15 17 0 15 -20 -5 -44 -10 -12 2 -3
25 19 23 21 42 43 42 47 0 13 -33 9 -54 -7z"/>
<path d="M1317 922 c-11 -12 -13 -22 -6 -32 8 -13 12 -11 29 9 30 36 9 58 -23
23z"/>
<path d="M2207 928 c-2 -7 2 -21 11 -30 13 -15 13 -20 1 -35 -10 -14 -8 -13
10 2 34 29 46 56 30 66 -20 13 -47 11 -52 -3z"/>
<path d="M925 904 c-13 -10 -19 -24 -17 -40 2 -17 -5 -36 -20 -52 -13 -15 -15
-20 -5 -12 30 23 80 101 71 110 -5 5 -18 2 -29 -6z"/>
<path d="M1834 898 l-19 -23 23 19 c21 18 27 26 19 26 -2 0 -12 -10 -23 -22z"/>
<path d="M1454 868 l-19 -23 23 19 c21 18 27 26 19 26 -2 0 -12 -10 -23 -22z"/>
<path d="M2089 863 c-13 -16 -12 -17 4 -4 16 13 21 21 13 21 -2 0 -10 -8 -17
-17z"/>
<path d="M214 846 c-3 -14 -3 -29 0 -34 3 -4 -15 -49 -40 -98 -38 -74 -45 -96
-41 -128 6 -45 36 -80 60 -70 15 6 15 8 -3 31 -43 56 -36 115 26 219 24 40 33
65 29 81 -7 30 -23 29 -31 -1z"/>
<path d="M1780 829 c-58 -81 -85 -198 -53 -230 14 -13 89 -20 114 -10 21 9 20
10 -17 10 -71 1 -96 54 -70 144 8 29 27 70 40 90 34 50 23 47 -14 -4z"/>
<path d="M1059 833 c-13 -16 -12 -17 4 -4 9 7 17 15 17 17 0 8 -8 3 -21 -13z"/>
<path d="M2510 835 c-14 -16 -10 -18 14 -9 9 3 16 10 16 15 0 14 -16 11 -30
-6z"/>
<path d="M2913 819 c-11 -14 -44 -99 -38 -99 2 0 15 21 29 47 26 45 31 79 9
52z"/>
<path d="M3026 808 c-8 -12 -13 -25 -10 -29 3 -5 0 -18 -6 -29 -18 -33 -4 -23
17 13 26 44 34 67 23 67 -5 0 -16 -10 -24 -22z"/>
<path d="M1394 798 l-19 -23 23 19 c12 11 22 21 22 23 0 8 -8 2 -26 -19z"/>
<path d="M2667 788 c-34 -46 -47 -73 -47 -99 0 -18 2 -19 15 -9 8 7 15 25 15
40 0 15 11 44 25 64 30 45 25 48 -8 4z"/>
<path d="M540 801 c-22 -6 -20 -8 18 -13 24 -4 52 -14 62 -23 15 -14 22 -15
41 -4 l23 12 -23 18 c-24 19 -74 23 -121 10z"/>
<path d="M1019 783 l-24 -28 28 24 c25 23 32 31 24 31 -2 0 -14 -12 -28 -27z"/>
<path d="M1854 768 c-10 -15 1 -19 26 -10 l24 9 -22 5 c-12 4 -25 2 -28 -4z"/>
<path d="M2457 756 c-10 -26 -10 -26 26 -25 17 0 25 3 17 6 -8 4 -20 13 -26
21 -9 13 -12 13 -17 -2z"/>
<path d="M356 744 c-8 -21 -1 -28 19 -20 9 3 15 11 13 18 -7 19 -25 20 -32 2z"/>
<path d="M2534 746 c-10 -8 -16 -17 -13 -20 3 -3 14 3 24 14 21 23 17 26 -11
6z"/>
<path d="M819 733 c-13 -16 -12 -17 4 -4 9 7 17 15 17 17 0 8 -8 3 -21 -13z"/>
<path d="M2344 705 c-13 -32 -13 -38 2 -58 l16 -22 -7 22 c-3 12 -2 38 4 58
12 45 4 45 -15 0z"/>
<path d="M1140 678 c-44 -78 -38 -128 17 -128 28 0 30 11 3 28 -26 16 -26 61
0 112 30 58 16 49 -20 -12z"/>
<path d="M2061 704 c-12 -15 -26 -44 -32 -65 -15 -47 -1 -69 42 -69 33 0 39
15 9 23 -31 8 -37 55 -12 99 24 45 22 48 -7 12z"/>
<path d="M1347 685 c-15 -19 -23 -35 -17 -35 5 0 10 -10 10 -23 0 -40 23 -61
56 -52 28 7 28 7 7 16 -26 10 -38 46 -30 95 3 18 5 34 4 34 -1 0 -15 -16 -30
-35z"/>
<path d="M793 698 c-6 -7 -23 -37 -38 -66 l-29 -53 21 -20 c15 -15 27 -18 47
-13 l27 6 -23 12 c-31 15 -35 57 -10 107 20 40 22 48 5 27z"/>
<path d="M1530 668 c-19 -22 -35 -49 -37 -61 -2 -11 -8 -26 -14 -34 -6 -7 -8
-13 -3 -13 5 0 23 22 40 48 17 26 39 59 48 75 27 40 6 31 -34 -15z"/>
<path d="M2958 654 c-18 -41 -18 -48 -5 -61 10 -10 23 -13 38 -8 l24 8 -23 8
c-24 9 -30 46 -12 80 6 10 8 19 5 19 -3 0 -15 -21 -27 -46z"/>
<path d="M2835 660 c-21 -42 -20 -70 5 -70 18 0 19 3 8 20 -10 15 -10 27 -1
50 14 38 8 39 -12 0z"/>
<path d="M585 655 c-22 -13 -34 -25 -26 -25 8 0 11 -6 7 -16 -7 -19 59 34 68
54 8 18 -4 15 -49 -13z"/>
<path d="M935 640 c-16 -16 -25 -30 -19 -30 5 0 17 -14 26 -30 9 -17 25 -30
36 -30 29 0 33 11 11 29 -14 11 -21 29 -22 54 0 20 -1 37 -2 37 -1 0 -14 -13
-30 -30z"/>
<path d="M2672 638 c-15 -15 12 -48 40 -48 23 0 23 11 -2 38 -24 26 -23 25
-38 10z"/>
<path d="M2498 624 c-16 -16 -15 -18 7 -36 25 -20 55 -24 55 -8 0 6 -4 10 -10
10 -5 0 -15 11 -22 25 -13 23 -15 24 -30 9z"/>
<path d="M2347 606 c-7 -16 13 -26 51 -26 l27 0 -33 20 c-39 24 -38 24 -45 6z"/>
<path d="M240 468 c-55 -91 3 -174 108 -153 l37 8 -45 8 c-56 11 -90 46 -90
95 0 20 5 44 10 55 18 32 1 21 -20 -13z"/>
<path d="M1520 473 c0 -6 37 -13 83 -16 120 -7 189 -36 260 -110 40 -42 61
-57 68 -50 8 8 6 19 -4 39 -23 44 -66 80 -132 110 -50 23 -77 28 -167 32 -68
3 -108 1 -108 -5z"/>
<path d="M1325 440 c-32 -12 -42 -19 -27 -19 25 -1 28 -10 10 -31 -7 -7 6 1
29 19 71 54 69 61 -12 31z"/>
<path d="M979 343 l-24 -28 28 24 c25 23 32 31 24 31 -2 0 -14 -12 -28 -27z"/>
<path d="M925 274 c-9 -14 -19 -41 -22 -60 -5 -29 -1 -38 31 -70 36 -36 37
-37 105 -32 37 3 76 10 87 17 17 11 17 11 -5 5 -116 -32 -228 59 -181 147 15
28 5 23 -15 -7z"/>
</g>
</svg>
