<?xml version="1.0" encoding="iso-8859-1"?>
<!-- Generator: Adobe Illustrator 19.0.0, SVG Export Plug-In . SVG Version: 6.00 Build 0)  -->
<svg version="1.1" id="Capa_1" xmlns="http://www.w3.org/2000/svg" xmlns:xlink="http://www.w3.org/1999/xlink" x="0px" y="0px"
	 viewBox="0 0 512 512" style="enable-background:new 0 0 512 512;" xml:space="preserve">
<path style="fill:#885951;" d="M424.002,335.998c-39.7,0-71.998,32.298-71.998,71.998s32.298,71.998,71.998,71.998
	S496,447.696,496,407.996S463.703,335.998,424.002,335.998z"/>
<path style="fill:#7A463D;" d="M424.002,351.998c-30.878,0-55.999,25.12-55.999,55.999s25.12,55.999,55.999,55.999
	s55.999-25.12,55.999-55.999S454.88,351.998,424.002,351.998z"/>
<path style="fill:#E4DAD8;" d="M424.002,367.997c-22.055,0-39.999,17.944-39.999,39.999s17.944,39.999,39.999,39.999
	s39.999-17.944,39.999-39.999S446.057,367.997,424.002,367.997z"/>
<path style="fill:#885951;" d="M96.01,335.998c-39.7,0-71.998,32.298-71.998,71.998s32.298,71.998,71.998,71.998
	s71.998-32.298,71.998-71.998S135.711,335.998,96.01,335.998z"/>
<path style="fill:#7A463D;" d="M96.01,351.998c-30.878,0-55.999,25.12-55.999,55.999s25.12,55.999,55.999,55.999
	s55.999-25.12,55.999-55.999S126.888,351.998,96.01,351.998z"/>
<g>
	<path style="fill:#E4DAD8;" d="M96.01,367.997c-22.055,0-39.999,17.944-39.999,39.999s17.944,39.999,39.999,39.999
		s39.999-17.944,39.999-39.999S118.065,367.997,96.01,367.997z"/>
	<path style="fill:#E4DAD8;" d="M399.412,152.692c-1.022-0.454-2.13-0.689-3.249-0.689h-23.999c-2.908,0-5.587,1.578-6.997,4.121
		c-1.409,2.544-1.328,5.651,0.212,8.118c37.102,59.385,21.455,139.631,1.886,179.757h-103.26c-4.418,0-8,3.582-8,8v31.999
		c0,4.418,3.582,8,8,8h79.998c1.196,0,2.378-0.269,3.457-0.786l100.158-47.999c2.352-1.126,4.006-3.327,4.435-5.898
		C453.075,331.184,476.188,186.815,399.412,152.692z"/>
</g>
<path style="fill:#D7C8C5;" d="M367.264,343.998h15.906c19.57-40.126,35.216-120.372-1.886-179.757
	c-1.54-2.467-1.621-5.574-0.212-8.118c1.41-2.543,4.089-4.121,6.997-4.121h-15.906c-2.908,0-5.587,1.578-6.997,4.121
	c-1.409,2.544-1.328,5.651,0.212,8.118C402.48,223.626,386.834,303.872,367.264,343.998z"/>
<path style="fill:#F56C6C;" d="M303.097,278.847c-4.527-25.273-19.258-43.74-43.78-54.888
	c-20.104-9.137-116.672-19.341-183.692,24.592c-77.207,50.611-75.96,126.479-75.551,151.41c0.03,1.818,0.086,3.64,0.035,5.458
	c-0.043,1.535-0.17,2.958,0.348,4.446c1.106,3.182,4.189,5.373,7.556,5.373h247.994c2.11,0,4.135-0.834,5.633-2.319
	c3.698-3.667,16.448-23.878,26.623-47.845C297.977,342.193,308.437,308.657,303.097,278.847z"/>
<path style="fill:#DB4D4D;" d="M23.917,409.866c-0.517-1.488-0.391-2.911-0.348-4.446c0.051-1.818-0.005-3.64-0.035-5.458
	c-0.408-24.931-1.655-100.8,75.552-151.41c34.531-22.635,76.907-30.899,112.627-32.343c-39.229-1.601-93.595,4.488-136.089,32.343
	c-77.207,50.611-75.96,126.479-75.551,151.41c0.03,1.818,0.086,3.64,0.035,5.458c-0.043,1.535-0.17,2.958,0.348,4.446
	c1.106,3.182,4.188,5.373,7.556,5.373h23.461C28.106,415.238,25.023,413.047,23.917,409.866z"/>
<path style="fill:#F56C6C;" d="M424.002,319.998c-48.522,0-87.998,39.476-87.998,87.998c0,4.418,3.582,8,8,8h16
	c2.922,0,5.611-1.593,7.016-4.155c13.586-24.789,31.159-35.844,56.983-35.844c29.28,0,47.364,19.66,57.38,36.151
	c1.45,2.389,4.043,3.848,6.838,3.848H504c4.418,0,8-3.582,8-8C512,359.474,472.525,319.998,424.002,319.998z"/>
<path style="fill:#DB4D4D;" d="M352.004,407.996c0-45.825,35.211-83.575,79.998-87.631c-2.636-0.239-5.303-0.367-8-0.367
	c-48.522,0-87.998,39.476-87.998,87.998c0,4.418,3.582,8,8,8h16C355.585,415.996,352.004,412.414,352.004,407.996z"/>
<path style="fill:#885951;" d="M280.005,176.002H168.008c-26.467,0-47.999,21.531-47.999,47.999v8c0,4.418,3.582,8,8,8h151.996
	c4.418,0,8-3.582,8-8v-47.999C288.005,179.584,284.423,176.002,280.005,176.002z"/>
<g>
	<path style="fill:#7A463D;" d="M144.008,232v-8c0-26.467,21.531-47.999,47.999-47.999h-23.999
		c-26.467,0-47.999,21.531-47.999,47.999v8c0,4.418,3.582,8,8,8h23.999C147.59,240,144.008,236.418,144.008,232z"/>
	<path style="fill:#7A463D;" d="M392.003,136.003c-4.418,0-8-3.582-8-8V85.42l-34.97-13.988c-4.103-1.641-6.098-6.297-4.457-10.398
		c1.641-4.101,6.298-6.098,10.398-4.457l39.999,16c3.038,1.215,5.029,4.156,5.029,7.428v47.999
		C400.002,132.421,396.421,136.003,392.003,136.003z"/>
</g>
<path style="fill:#F56C6C;" d="M328.004,32.005c-17.645,0-31.999,14.355-31.999,31.999s14.355,31.999,31.999,31.999
	c17.645,0,31.999-14.355,31.999-31.999S345.649,32.005,328.004,32.005z"/>
<path style="fill:#DB4D4D;" d="M344.004,88.004c-17.645,0-31.999-14.355-31.999-31.999c0-9.271,3.967-17.63,10.288-23.478
	c-14.927,2.702-26.287,15.785-26.287,31.478c0,17.645,14.355,31.999,31.999,31.999c8.374,0,16.003-3.237,21.711-8.521
	C347.862,87.819,345.955,88.004,344.004,88.004z"/>
<path style="fill:#7A463D;" d="M376.003,136.003h-63.999c-4.418,0-8-3.582-8-8c0-4.418,3.582-8,8-8h63.999c4.418,0,8,3.582,8,8
	C384.003,132.421,380.421,136.003,376.003,136.003z"/>
<path style="fill:#956B64;" d="M408.002,120.003h-47.999v39.999c0,4.418,3.582,8,8,8h39.999V120.003z"/>
<path style="fill:#F56C6C;" d="M454.682,115.591c-1.865-2.781-5.132-4.06-8.25-3.433l-38.43,7.845v47.999l38.43,7.845
	c5.051,1.012,9.569-3.015,9.569-8.064v-47.588C456.001,118.567,455.589,116.943,454.682,115.591z"/>
<path style="fill:#FBDC40;" d="M112.009,144.003H24.011c-4.418,0-8,3.582-8,8V232c0,4.418,3.582,8,8,8h87.998c4.418,0,8-3.582,8-8
	v-79.998C120.009,147.584,116.427,144.003,112.009,144.003z"/>
<path style="fill:#FAD000;" d="M120.009,152.002c0-4.418-3.582-8-8-8H24.011c-4.418,0-8,3.582-8,8v16h103.998V152.002z"/>
<path style="fill:#FBDC40;" d="M120.951,112.003H15.07c-3.898,0-7.059,2.985-7.059,6.667v26.666c0,3.682,3.161,6.667,7.059,6.667
	h105.88c3.898,0,7.059-2.985,7.059-6.667V118.67C128.009,114.988,124.849,112.003,120.951,112.003z"/>
<g>
	<path style="fill:#DB4D4D;" d="M248.006,287.999h-71.998c-4.418,0-8-3.582-8-8c0-4.418,3.582-8,8-8h71.998c4.418,0,8,3.582,8,8
		C256.006,284.417,252.424,287.999,248.006,287.999z"/>
	<path style="fill:#DB4D4D;" d="M232.006,335.998H128.009c-4.418,0-8-3.582-8-8c0-4.418,3.582-8,8-8h103.998c4.418,0,8,3.582,8,8
		C240.006,332.416,236.424,335.998,232.006,335.998z"/>
	<path style="fill:#DB4D4D;" d="M208.007,383.997H80.01c-4.418,0-8-3.582-8-8s3.582-8,8-8h127.997c4.418,0,8,3.582,8,8
		S212.425,383.997,208.007,383.997z"/>
</g>
<path style="fill:#7A463D;" d="M128.009,240H8.012c-4.418,0-8-3.582-8-8c0-4.418,3.582-8,8-8h119.997c4.418,0,8,3.582,8,8
	C136.009,236.418,132.427,240,128.009,240z"/>
<g>
</g>
<g>
</g>
<g>
</g>
<g>
</g>
<g>
</g>
<g>
</g>
<g>
</g>
<g>
</g>
<g>
</g>
<g>
</g>
<g>
</g>
<g>
</g>
<g>
</g>
<g>
</g>
<g>
</g>
</svg>
