<svg xmlns="http://www.w3.org/2000/svg" width="682.667" height="682.667" version="1.0" viewBox="0 0 512 512">
  <path d="M45.5 9.9c-4.9 2.3-9.9 7.4-11.9 12.3-2.5 5.8-2.2 30.9.3 36.3 4 8.6 12 13.5 22.1 13.5 5.4 0 6.1.2 5.6 1.7-.3 1-4.4 22.5-9.1 47.8-4.7 25.3-9.3 48.9-10.2 52.5-2.3 9.7-6.5 18.1-14.2 28.9-8 11.2-12.7 20.2-16.7 32.1l-2.9 8.5-.3 110C8 461.8 8 463.6 10 470.2c4 13.4 15.4 25.6 28.7 31l5.8 2.3 57.4.3c63.2.3 62.5.3 74.1-6l5.6-3 4.4 3c9.3 6.2 10.3 6.3 56 6l41.5-.3 5.8-2.9c7.6-3.7 15.6-11.7 18.7-18.7l2.3-5.4 7.6 7.5c9 8.8 19.8 15 31.7 18 7.1 1.8 11.1 2 50.4 2 39.2 0 43.3-.2 50.4-2 24.8-6.3 45.3-26.8 51.6-51.6 1.8-6.9 2-11.2 2-39.1 0-38 1.1-35.3-13.9-35.3h-9.9l-.4-9.8c-.5-11.7-3.4-18.7-10.9-26.5-4.3-4.4-4.9-5.6-4.9-9.3 0-5.8-3.5-16.8-7.6-23.5-1.9-3.1-6.6-8.9-10.5-13-8-8.3-10.5-12.1-14.9-23.4-4.9-12.4-11.7-20.2-21.3-24.3-4.6-2-22.3-6.2-26.1-6.2-7.1 0-9 4.7-6.2 15.3 3 11.6-2.1 20.1-24.1 39.8-9.7 8.7-16 21.2-17 33.6-.5 5.7-.9 6.6-5.3 11.1-7.4 7.7-10.3 14.7-10.8 26.5l-.4 9.7H312.1l-.3-37.8-.3-37.7-8.2-17C290.7 257.2 286 244.8 281 225c-4.4-17.5-8-40.6-8-52.3 0-4.4.2-4.7 2.5-4.7 6.5 0 14.9-6 18.8-13.5 2.8-5.4 2.8-15.4-.1-21-2.6-5.1-7.7-10-12.4-11.9-5.6-2.4-78-2.4-83.6 0-4.7 1.9-9.8 6.8-12.5 11.9-2.9 5.5-2.9 15.5 0 21 4 7.5 12.3 13.5 18.9 13.5h2.7l-.7 10.1c-.9 13.9-3.1 28-6.8 43.7l-3.2 13.4-1.7-4.9c-2.7-8-7.8-17.3-14.9-27.3-12.5-17.5-12.7-18.4-23.9-78.5-5.1-27-9.4-49.8-9.7-50.8-.5-1.5.2-1.7 5.8-1.7 7.4 0 12.9-2.3 17.5-7.1 5.4-5.7 6.3-9.2 6.3-24.9s-.9-19.2-6.3-24.9C162.8 7.8 164.8 8 104 8c-51 0-54.8.2-58.5 1.9zm108.9 15.5c4.2 1.7 5.6 5.5 5.6 14.6s-1.4 12.9-5.6 14.6c-4.4 1.8-95.2 2.1-100.4.3-4.2-1.5-6-5.8-6-14.7 0-9.1 1.4-13.1 5.4-14.8 4.6-2 96.2-2 101 0zm-23 60.8c1.5 7.9 2.9 15.1 3.2 16 .5 1.7-1.4 1.8-30.6 1.8-29.2 0-31.1-.1-30.6-1.8.3-.9 1.7-8.1 3.2-16L79.2 72h49.6l2.6 14.2zm6.6 34.4c0 2.3 10.4 55.4 12 61.2 2.6 9.3 8.3 20.6 15.5 30.7 3.2 4.4 7 10.2 8.6 13 2.6 4.7 7.9 19 7.9 21.4 0 .8-23.1 1.1-78 1.1s-78-.3-78-1.1c0-2.4 5.3-16.7 7.9-21.4 1.6-2.8 5.4-8.6 8.6-13 7.2-10.1 12.9-21.4 15.5-30.7 1.6-5.8 12-58.9 12-61.2 0-.3 15.3-.6 34-.6s34 .3 34 .6zm136.5 16.8c3.7 1.6 5.2 4.8 4.1 9.2-1.3 4.9-4.5 5.4-38.6 5.4s-37.3-.5-38.6-5.4c-1-4.3.4-7.6 3.9-9.1 4.7-2.1 64.3-2.1 69.2-.1zm-18.5 37c0 3.5.3 7.1.6 8 .5 1.4-1.3 1.6-16.6 1.6s-17.1-.2-16.6-1.6c.3-.9.6-4.5.6-8V168h32v6.4zm4.7 37.9c4.4 24.7 11.9 46.6 25.4 74.7 5.6 11.6 8.9 19.7 8.9 21.7v3.3H185v-3.3c0-2 3.3-10.1 8.9-21.7 13.5-28.1 21-50 25.4-74.7l2.2-12.3h37l2.2 12.3zm141.8 49.6c5.9 2.7 9 6.7 13.5 17 5.6 13.2 8.1 17.1 17.1 26.7 7.5 7.9 12.9 16.5 12.9 20.6 0 1.5-.9 1.8-5 1.8-6.4 0-9 2.3-9 8 0 5.2 2.5 7.7 8.7 8.5 13.8 1.8 21.4 10 22.9 24.8l.7 6.7H335.7l.7-6.7c1.5-14.8 9.1-23 22.9-24.8 6.2-.8 8.7-3.3 8.7-8.5 0-5.7-2.6-8-9-8-6.1 0-6.3-1-1.9-9.9 2.2-4.4 5-7.8 10.2-12.4 9.5-8.2 12.7-11.6 18.4-18.9 4.9-6.4 9.2-15.6 9.3-19.8 0-3.9 1.1-7 2.4-7 .6 0 2.9.9 5.1 1.9zM184 266.2c0 1.2-3.5 9.4-7.7 18.2l-7.8 16.1-.3 53.7-.3 53.8H24V264h160v2.2zM296 376v48H184v-96h112v48zm191.7 40.2c-.4 16.5-1 25.9-2 29.3-5.8 20.5-21.1 35.4-41.7 40.6-7.9 2-80.1 2-88 0-20.6-5.2-35.9-20.1-41.7-40.6-1-3.4-1.6-12.8-2-29.3l-.6-24.2h176.6l-.6 24.2zm-319.7 32c.1 18.3.4 25.3 1.5 28.3 1.6 4.5 1.8 4.3-6.5 8.3l-5.5 2.7h-107l-6-2.8c-7.8-3.7-13.7-9.5-17.1-17.1-2.6-5.8-2.8-7-3.2-24.9l-.5-18.7H168v24.2zm127.8 6c-.5 16.5-1.9 21-8.5 26.9-6.9 6.3-7.9 6.4-47.8 6.4-34.5 0-36.2-.1-40.5-2.1-5.8-2.7-9.8-6.7-12.3-12.4-1.7-3.6-2.1-7.2-2.5-18.8l-.5-14.2h112.6l-.5 14.2z"/>
  <path d="M227.2 346.1c-7.2 2.8-14.4 10.1-17.2 17.6-2.9 7.8-2.5 20.6.9 27.2 9.9 19 36.9 23.2 52.1 8.1 15.9-16 10.2-45.2-10.5-52.9-7.4-2.8-18-2.8-25.3 0zm20.6 16.9c13 7.9 7.4 28-7.8 28-8.5 0-15-6.5-15-15 0-11.6 12.9-19 22.8-13zM388 9.5c-35.7 8-63 33.7-73.2 69.1-2 6.9-2.3 10.1-2.3 25.4 0 15.3.3 18.5 2.3 25.4 9.6 33.2 34.3 58.1 67.3 67.7 11.3 3.2 34.2 3.8 46.6 1.1 35.1-7.8 62.3-33.6 72.5-68.8 2-6.9 2.3-10.1 2.3-25.4 0-15.3-.3-18.5-2.3-25.4-9.6-33.2-34.3-58-67.3-67.7-9.7-2.8-35.9-3.6-45.9-1.4zM427.5 27c7.7 1.9 24.4 10.3 30.9 15.8 8.5 7.1 15.1 15.4 20.2 25.7 6.1 12.3 8.4 22.2 8.4 35.5 0 31.1-17.3 58.2-45.5 71.6-11.5 5.4-21.1 7.5-33.9 7.5-12.7-.1-23-2.6-35.1-8.5-16.4-8.2-28.5-20.7-36.3-37.6-5.2-11.1-7.2-20.4-7.2-33.3 0-51.2 48-88.6 98.5-76.7z"/>
  <path d="m445.4 58-2.9 6.1-11.5.2c-10.8.2-12 .4-18.1 3.4-12.2 6-21.7 18.3-24.9 32.1-2.1 9-6 12.2-17 13.6-6.2.9-11.9 4.3-15.4 9.4-2.6 3.7-3.1 5.5-3.4 11.6-.5 8.5 1.4 13.3 7.2 18.4 5.9 5.2 12.8 6.7 30.6 6.7 14.8 0 15.9-.1 24.3-3.1 12.5-4.5 19-8.7 29.4-19 8.1-8 9.7-10.3 14.5-20l5.3-10.9v-10c0-10-1.3-14.6-5.7-20.7-1.1-1.5-.7-2.9 2.4-9.1l3.6-7.4-7.4-3.6c-4.1-2-7.6-3.7-7.7-3.7-.2 0-1.6 2.7-3.3 6zm-5.9 24.9c7.6 4.3 9.3 12.5 5 23.3-6.8 16.8-22.6 30.7-40.2 35.3-7.8 2-23.4 1.9-29.8-.3-4.5-1.5-5-2-5.3-4.9-.4-3.9 2.2-5.8 9-6.7 6.5-.8 13.6-4.6 18.3-9.8 4.3-4.6 6.5-9 9-18 4.4-16.3 21.7-25.8 34-18.9z"/>
</svg>
