<svg xmlns="http://www.w3.org/2000/svg" width="682.667" height="682.667" version="1.0" viewBox="0 0 512 512">
  <path d="M144.4 1C89.4 6.8 40 41.8 16.1 92 7.5 110.1 3.2 125.7.9 146.5c-2.2 20.7.5 31.1 10.5 41.1 6.9 6.8 13.7 10 23.8 11.1 4.9.5 5.8.9 5.2 2.2-.4.9-.9 5-1.1 9.1-.3 5.7.1 8.4 1.5 11.4l1.8 4-4.7 2.3c-6.8 3.4-14.2 11.2-18 18.9-6 12.2-5.1 29.1 2.2 40.6 3.9 6 10.6 12.2 16.4 15l4.5 2.2V319c0 14-.1 14.6-2.3 15.9-18 11-30.4 32.7-24 42.1.9 1.4 2 2.7 2.4 3 .4.3-.1 3-1.1 6-4.1 11.8-1.7 29.2 5.3 38.4l2.6 3.4-4.9 2C10.1 434.3 1.5 446.4.4 459c-1.3 13.7 3.8 26.3 15 37.5 3.9 3.9 9.4 8.2 12.2 9.7 11.5 6.2-3.2 5.8 227.9 5.8 184.7 0 211.8-.2 217.4-1.5 28.9-6.9 46.7-38.7 35.5-63.6-3.2-7-10.4-14.2-17.3-17l-4.9-2.1 3.4-5c6.6-9.8 8.5-24.6 4.7-36-1.7-4.9-1.8-5.9-.6-7.1 2.7-2.7 4.1-8.7 3.1-13.1-2.2-9.9-14.7-26-24.1-31.1l-3.7-2v-29l5.4-2.8c7-3.7 15-12.1 18.4-19.4 2.4-5.3 2.7-6.9 2.7-17.3 0-11.1-.1-11.8-3.3-18.3-1.9-3.7-5.6-9-8.3-11.7l-4.9-4.9 3.2-5.2c2.7-4.3 3.3-6.4 3.6-12.3.3-5-.1-8.4-1.2-10.9-1.4-3.5-1.4-3.8.2-4.3 9.6-2.8 19.5-11.5 24-21.2 2.5-5.3 2.7-6.6 2.7-19.7-.1-29.9-9.3-58.7-27.6-85.7-8.4-12.4-30.3-34.3-42.7-42.7C423.3 16 404 7.7 382.5 2.9 372.7.7 371.1.6 292 .3l-80.6-.4-2.7 2.1c-3.1 2.4-3.7 7.3-1.3 10.6 1.4 1.8 3.8 1.9 81.8 2.5 76.2.5 80.8.7 89.8 2.6 13.5 3 23.8 6.5 36.5 12.7 46.8 22.8 77.7 69.5 81.1 122.6 1 15.3-2.3 23.1-11.9 28.3l-4.2 2.2h-449l-4-2.2c-4.6-2.4-7.5-5.4-10.1-10.3-1.6-2.9-1.9-5.5-1.8-14.5.4-35.3 15-69.6 41.1-96.6 12.2-12.6 24.7-21.8 39.8-29.3 21.1-10.5 38.3-14.5 64.5-15.2 9.6-.3 18.5-.7 19.8-1 5.4-1.1 5.8-10.9.6-13.3-2.8-1.2-25.4-1.3-37-.1zM465 200.5c1.6.8 3.6 2.5 4.4 3.7 2.1 3 2 9.3-.1 12.9-3 5.1-6.3 5.9-24.7 5.9-18 0-21.3.8-26.3 6.2-5.2 5.6-5.3 6.2-5.3 56.7v46.9l-2.6 3.1c-3.7 4.4-9.1 4.4-12.8 0l-2.6-3.1v-47.1c0-43.8-.2-47.5-1.9-51.2-2.2-4.8-5.4-7.9-10.3-10-3.3-1.3-17.4-1.5-120.7-1.5-80.1 0-117.9.3-119.8 1.1-3 1.1-8.8 6.2-10.6 9.4-.6 1.1-1.4 8.2-1.7 15.8-.5 13.7-.5 13.9-3.3 16.3-3.1 2.6-6.2 3-10 1.3-3.9-1.7-4.6-4.5-4.9-18.1-.3-12.2-.4-12.8-3.3-17-1.8-2.5-4.9-5.2-7.5-6.6-4-2-5.8-2.2-20.7-2.2-18.4 0-22.2-.9-24.7-5.9-3.3-6.2-1.3-13.5 4.3-16.6 4-2.2 400.8-2.2 405.1 0zM96 239.9c.5 1.1 1 7.1 1 13.4 0 10.4.2 11.8 2.8 16.8 8.6 17.1 33.4 16.8 42.4-.5 1.8-3.4 2.2-6.3 2.6-16.6.2-6.9.9-13.1 1.4-13.8.8-.9 25.3-1.2 116.4-1.2 113 0 115.4 0 116.4 1.9.6 1.2 1 11.7 1 27V292l-164.7-.2-164.8-.3-4.1-2.2C35.9 283.7 31 275.9 31 265.1c0-11.2 5.9-20.5 16-25 4.1-1.9 6.5-2.1 26.2-2.1 20.5 0 21.8.1 22.8 1.9zm369.5.5c9.7 4.6 15.6 13.8 15.6 24.5.1 10.6-5 18.9-14.6 23.9-4.7 2.5-6 2.7-21.7 3l-16.8.4v-25.9c0-18.8.3-26.2 1.2-27.1.8-.8 5.9-1.2 16.3-1.2 13.7 0 15.4.2 20 2.4zM249 316.5c0 6.7-.4 9.7-1.2 10-.7.3-43.7.6-95.6.7l-94.2.3V307h191v9.5zm131 .5v10H264v-20h116v10zm74 .6c0 10.5 0 10.6-2.2 10-1.3-.3-7.1-.6-13-.6H428v-20h26v10.6zm-67.6 28.5c5 5.3 10.7 7.9 17.6 7.9 7 0 12.4-2.5 17.2-7.8l3.8-4.2h11.9c13.2 0 20.4 1.6 27.9 6.4 5.9 3.7 11.9 10.1 14.8 15.8l2.4 4.8-3.6 1.5c-2 .8-4 1.5-4.3 1.5-.4 0-6.5 3.6-13.7 8-17.5 10.8-21.2 12.2-35.4 12.8-17.9.7-24.9-1.4-41.6-12.4-15.7-10.3-27.2-13.8-44.9-13.8-17.4 0-30.9 4.3-44.3 13.8-13.1 9.4-22.9 12.6-38.5 12.6-13.6 0-22.3-2.7-34.4-10.6-16.2-10.5-27.5-14.8-42.4-16-16.8-1.4-32.7 3.1-50.8 14.4-17.4 10.9-19.7 11.7-37.6 11.7-17.8 0-20.5-.9-36.5-11.1-9-5.8-16.6-9.8-22.3-11.8-1.7-.5-1.6-.8.4-4.7 4.6-9.1 14.6-17.4 25.4-21.1 4.7-1.6 15.8-1.7 165-1.8h160l3.9 4.1zM192.2 384c3.9 1.2 10.5 4.6 16 8.2 17.9 11.8 30 15.8 47.8 15.8 17.6 0 29.3-3.8 46.9-15.2 11.7-7.6 20.2-10.6 31.8-11.4 15.6-1.1 26.2 2.3 45 14.4 5.8 3.8 12.4 7 18 8.8 8.1 2.7 10 2.9 23.8 2.9s15.7-.2 23.8-2.9c5.3-1.7 12.4-5.1 17.5-8.4 4.8-3 10.1-6.3 11.9-7.4l3.2-1.9 1.7 3.2c4.3 8.5.8 22.7-7.4 29.9-7.9 7-7.8 7-68.8 7-29.8 0-55 .3-55.9.6-1 .4-2.3 2.1-3 3.7-1.6 3.9-.3 8 3.1 9.6 1.8.8 21.3 1.1 68.2 1.1 61.6 0 66 .2 69.7 1.9 7.1 3.2 11.5 10.4 11.5 18.7 0 9.5-6.9 22-15.3 27.8-10.6 7.1 7.1 6.7-227.7 6.4l-211.5-.3-6.1-2.8c-12.6-5.8-20.8-18.1-20.9-31.4 0-6.3.3-7.6 3-11.5 1.8-2.5 4.9-5.2 7.5-6.6l4.4-2.2H317.7l2.7-2.1c3.3-2.6 3.6-7.9.6-10.9-2-2-3.3-2-134.3-2-146.4 0-138.4.4-146.4-6.5-6-5.1-9.3-12.3-9.3-20.2 0-3.5.7-7.9 1.5-9.9 1.7-4.1 1.3-4.2 14.1 4.1 15.1 9.9 26.6 13.5 44 13.5 17.8 0 28.6-3.4 45.2-14.1 10.9-7.1 16.1-9.6 24.5-11.5 8.3-1.8 23.2-1.1 31.9 1.6z"/>
  <path d="M136.3 96.2C114.5 118 113 119.7 113 123.1c0 4.5 2.5 6.9 7.1 6.9 3.2 0 5.3-1.9 26.7-23.3 25.2-25.3 25.8-26.2 20.7-31.2-5-5.1-5.9-4.5-31.2 20.7zM193.3 96.3c-20.2 20.2-23.3 23.6-23.3 26.3 0 4.3 3.2 7.4 7.7 7.4 3.5 0 5.1-1.4 26.5-22.8 21.4-21.4 22.8-23 22.8-26.4 0-2.8-.7-4.2-2.6-5.7-5.4-4.3-6.1-3.8-31.1 21.2zM251.1 96.4c-20.5 20.4-23.4 23.8-23.4 26.5 0 4.3 2.8 7.1 7.2 7.1 3.3 0 5.2-1.6 26.5-22.9 21.7-21.7 23-23.2 23-26.7 0-2.6-.7-4.2-2.3-5.5-5-4.1-6-3.4-31 21.5zM308.3 96.3C287.5 117 285 119.9 285 122.8c0 4.2 3 7.2 7.3 7.2 2.9 0 5.6-2.4 26.5-23.3 25.2-25.2 25.8-26.2 20.7-31.2-5-5.1-5.9-4.5-31.2 20.8zM366.3 96.2c-12.9 12.8-23.6 24.4-24 25.6-.9 3.7 2.6 7.6 7.2 8 3.7.3 4.2-.1 25.7-21.5 12.1-12 22.6-23.1 23.3-24.7 2.3-5.2-1.4-10.6-7.2-10.6-1 0-12.2 10.5-25 23.2z"/>
</svg>
