<?xml version="1.0" standalone="no"?>
<!DOCTYPE svg PUBLIC "-//W3C//DTD SVG 20010904//EN"
 "http://www.w3.org/TR/2001/REC-SVG-20010904/DTD/svg10.dtd">
<svg version="1.0" xmlns="http://www.w3.org/2000/svg"
 width="512.000000pt" height="512.000000pt" viewBox="0 0 512.000000 512.000000"
 preserveAspectRatio="xMidYMid meet">
<metadata>
Created by potrace 1.16, written by Peter Selinger 2001-2019
</metadata>
<g transform="translate(0.000000,512.000000) scale(0.100000,-0.100000)"
fill="#000000" stroke="none">
<path d="M2500 5101 c-79 -25 -155 -66 -201 -108 -38 -35 -42 -36 -127 -39
-56 -1 -108 -10 -144 -23 -113 -39 -215 -125 -261 -218 -18 -37 -26 -43 -51
-43 -96 0 -226 -61 -312 -145 -151 -148 -188 -354 -109 -603 l23 -73 -30 -64
c-23 -50 -30 -80 -31 -135 l-2 -70 -35 0 c-113 -1 -213 -112 -212 -235 0 -37
48 -291 126 -665 116 -563 127 -607 151 -627 52 -45 125 -13 125 54 0 20 -54
300 -121 622 -66 322 -121 598 -121 614 -1 16 9 38 22 52 l23 25 276 0 c194 0
303 -4 366 -15 580 -94 1041 -518 1186 -1092 45 -177 51 -334 47 -1213 -3
-772 -3 -775 -25 -815 -25 -47 -64 -85 -113 -111 -32 -18 -68 -19 -477 -22
-473 -4 -531 1 -595 43 -79 52 -74 35 -243 855 -144 701 -157 757 -181 778
-32 28 -66 28 -100 -2 -21 -18 -28 -32 -27 -57 3 -72 305 -1504 328 -1556 33
-74 96 -137 174 -176 l66 -32 665 0 665 0 66 32 c78 39 141 102 174 176 25 55
405 1877 405 1941 0 25 -7 40 -26 55 -34 27 -66 27 -99 -2 -25 -21 -37 -73
-216 -942 -104 -506 -194 -936 -200 -955 -6 -19 -22 -49 -35 -67 -24 -32 -91
-79 -100 -70 -3 3 5 25 18 49 l23 43 3 930 c2 894 2 934 -18 1049 -56 332
-233 667 -472 893 l-55 51 71 41 c151 86 327 148 501 176 63 11 172 15 366 15
l276 0 23 -25 c13 -14 23 -36 22 -52 0 -21 -139 -716 -166 -836 -7 -30 13 -73
40 -86 37 -16 60 -14 88 12 23 20 34 60 113 442 93 451 99 505 64 573 -15 29
-21 60 -21 102 0 93 -27 206 -70 295 l-39 80 -3 320 -3 320 -28 53 c-40 75
-97 133 -164 168 l-58 29 -276 3 -275 3 -20 37 c-29 57 -142 163 -210 199 -33
18 -87 39 -119 48 -81 21 -235 19 -305 -4z m325 -176 c107 -51 200 -168 220
-278 11 -57 32 -75 115 -98 91 -24 166 -72 219 -139 43 -54 81 -144 81 -190 0
-29 -2 -30 -47 -30 -27 -1 -68 -5 -93 -10 -38 -7 -55 -5 -110 17 -36 14 -93
28 -127 31 -58 4 -64 7 -122 63 -73 69 -177 123 -276 144 -93 19 -108 19 -139
-6 -20 -16 -26 -29 -26 -58 0 -56 16 -71 100 -87 107 -20 171 -55 255 -140 73
-74 74 -74 127 -74 l54 0 -71 -72 c-127 -131 -179 -262 -179 -449 l0 -117 -64
-31 c-36 -18 -91 -50 -124 -71 l-58 -39 -71 46 c-92 59 -252 134 -359 168
-176 55 -251 66 -487 72 -249 6 -243 4 -228 81 24 127 130 204 260 187 l57 -7
36 42 c128 147 184 179 322 189 l87 6 82 83 c70 71 81 88 81 118 0 74 -75 97
-146 45 -22 -15 -52 -42 -66 -60 -23 -26 -34 -31 -71 -31 -106 0 -256 -72
-342 -164 -48 -51 -52 -53 -115 -59 -36 -3 -82 -13 -104 -22 -22 -10 -42 -13
-48 -7 -4 4 -16 46 -24 93 -14 70 -14 95 -4 149 30 168 155 278 325 288 44 2
88 9 98 14 11 5 30 35 44 66 37 85 84 136 158 173 66 32 114 38 227 28 44 -4
48 -2 105 52 99 95 162 120 293 116 80 -3 104 -8 155 -32z m863 -284 c47 -24
77 -56 97 -103 12 -30 15 -80 15 -246 l0 -209 -84 41 -85 41 -6 45 c-23 179
-97 310 -228 407 l-59 43 156 0 c134 0 162 -3 194 -19z m-96 -639 c146 -52
262 -181 303 -337 23 -89 25 -86 -57 -83 l-73 3 -7 43 c-9 57 -54 136 -97 174
-97 86 -249 109 -362 56 -107 -49 -179 -149 -187 -260 l-4 -57 -66 -20 c-89
-27 -97 -11 -68 130 37 174 171 314 347 364 70 20 196 14 271 -13z m-85 -293
c45 -22 93 -80 93 -111 0 -16 -12 -18 -127 -18 -71 0 -145 -3 -165 -6 -33 -6
-38 -4 -38 12 0 22 35 83 59 102 55 45 114 52 178 21z"/>
<path d="M1577 2832 c-23 -26 -22 -94 1 -115 11 -10 35 -17 59 -17 50 0 75 25
75 75 0 51 -25 75 -77 75 -28 0 -47 -6 -58 -18z"/>
<path d="M2235 2781 c-77 -20 -143 -78 -165 -146 -20 -60 -9 -156 23 -204 93
-141 309 -138 393 5 66 113 24 269 -88 323 -50 24 -119 34 -163 22z m85 -166
c54 -28 48 -103 -9 -123 -80 -28 -127 87 -51 125 31 16 25 16 60 -2z"/>
<path d="M1852 1994 c-121 -60 -164 -204 -96 -321 100 -173 363 -141 419 51
57 195 -142 360 -323 270z m133 -140 c27 -11 46 -59 35 -89 -21 -55 -102 -57
-128 -3 -11 23 -10 32 2 57 20 38 51 50 91 35z"/>
<path d="M2579 1950 c-9 -5 -22 -23 -29 -40 -32 -77 58 -141 124 -89 55 43 21
139 -50 139 -16 0 -36 -5 -45 -10z"/>
<path d="M2464 1291 c-87 -39 -144 -148 -129 -243 29 -178 246 -258 377 -140
57 51 78 99 78 174 -1 102 -48 177 -137 215 -46 19 -140 16 -189 -6z m144
-157 c33 -23 30 -76 -5 -104 -64 -50 -143 29 -93 93 25 31 63 36 98 11z"/>
<path d="M2086 689 c-55 -43 -21 -139 50 -139 60 0 97 55 74 110 -21 50 -80
64 -124 29z"/>
</g>
</svg>
