<svg xmlns="http://www.w3.org/2000/svg" width="682.667" height="682.667" version="1.0" viewBox="0 0 512 512">
  <path d="M250 1.9c-7.9 2.5-15.5 6.6-20.1 10.8-3.8 3.5-4.2 3.6-12.7 3.9-5.6.1-10.8 1-14.4 2.3-11.3 3.9-21.5 12.5-26.1 21.8-1.8 3.7-2.6 4.3-5.1 4.3-9.6 0-22.6 6.1-31.2 14.5-15.1 14.8-18.8 35.4-10.9 60.3l2.3 7.3-3 6.4c-2.3 5-3 8-3.1 13.5l-.2 7H122c-11.3.1-21.3 11.2-21.2 23.5 0 3.7 4.8 29.1 12.6 66.5 11.6 56.3 12.7 60.7 15.1 62.7 5.2 4.5 12.5 1.3 12.5-5.4 0-2-5.4-30-12.1-62.2-6.6-32.2-12.1-59.8-12.1-61.4-.1-1.6.9-3.8 2.2-5.2l2.3-2.5h27.6c19.4 0 30.3.4 36.6 1.5 58 9.4 104.1 51.8 118.6 109.2 4.5 17.7 5.1 33.4 4.7 121.3-.3 77.2-.3 77.5-2.5 81.5-2.5 4.7-6.4 8.5-11.3 11.1-3.2 1.8-6.8 1.9-47.7 2.2-47.3.4-53.1-.1-59.5-4.3-7.9-5.2-7.4-3.5-24.3-85.5-14.4-70.1-15.7-75.7-18.1-77.8-3.2-2.8-6.6-2.8-10 .2-2.1 1.8-2.8 3.2-2.7 5.7.3 7.2 30.5 150.4 32.8 155.6 3.3 7.4 9.6 13.7 17.4 17.6l6.6 3.2h133l6.6-3.2c7.8-3.9 14.1-10.2 17.4-17.6C349 485.2 387 303 387 296.6c0-2.5-.7-4-2.6-5.5-3.4-2.7-6.6-2.7-9.9.2-2.5 2.1-3.7 7.3-21.6 94.2-10.4 50.6-19.4 93.6-20 95.5-.6 1.9-2.2 4.9-3.5 6.7-2.4 3.2-9.1 7.9-10 7-.3-.3.5-2.5 1.8-4.9l2.3-4.3.3-93c.2-89.4.2-93.4-1.8-104.9-5.6-33.2-23.3-66.7-47.2-89.3l-5.5-5.1 7.1-4.1c15.1-8.6 32.7-14.8 50.1-17.6 6.3-1.1 17.2-1.5 36.6-1.5h27.6l2.3 2.5c1.3 1.4 2.3 3.6 2.2 5.2 0 2.1-13.9 71.6-16.6 83.6-.7 3 1.3 7.3 4 8.6 3.7 1.6 6 1.4 8.8-1.2 2.3-2 3.4-6 11.3-44.2 9.3-45.1 9.9-50.5 6.4-57.3-1.5-2.9-2.1-6-2.1-10.2 0-9.3-2.7-20.6-7-29.5l-3.9-8-.3-32-.3-32-2.8-5.3c-4-7.5-9.7-13.3-16.4-16.8l-5.8-2.9-27.6-.3-27.5-.3-2-3.7c-2.9-5.7-14.2-16.3-21-19.9-3.3-1.8-8.7-3.9-11.9-4.8-8.1-2.1-23.5-1.9-30.5.4zm32.5 17.6c10.7 5.1 20 16.8 22 27.8 1.1 5.7 3.2 7.5 11.5 9.8 9.1 2.4 16.6 7.2 21.9 13.9 4.3 5.4 8.1 14.4 8.1 19 0 2.9-.2 3-4.7 3-2.7.1-6.8.5-9.3 1-3.8.7-5.5.5-11-1.7-3.6-1.4-9.3-2.8-12.7-3.1-5.8-.4-6.4-.7-12.2-6.3-7.3-6.9-17.7-12.3-27.6-14.4-9.3-1.9-10.8-1.9-13.9.6-2 1.6-2.6 2.9-2.6 5.8 0 5.6 1.6 7.1 10 8.7 10.7 2 17.1 5.5 25.5 14 7.3 7.4 7.4 7.4 12.7 7.4h5.4l-7.1 7.2c-12.7 13.1-17.9 26.2-17.9 44.9v11.7l-6.4 3.1c-3.6 1.8-9.1 5-12.4 7.1l-5.8 3.9-7.1-4.6c-9.2-5.9-25.2-13.4-35.9-16.8-17.6-5.5-25.1-6.6-48.7-7.2-24.9-.6-24.3-.4-22.8-8.1 2.4-12.7 13-20.4 26-18.7l5.7.7 3.6-4.2c12.8-14.7 18.4-17.9 32.2-18.9l8.7-.6 8.2-8.3c7-7.1 8.1-8.8 8.1-11.8 0-7.4-7.5-9.7-14.6-4.5-2.2 1.5-5.2 4.2-6.6 6-2.3 2.6-3.4 3.1-7.1 3.1-10.6 0-25.6 7.2-34.2 16.4-4.8 5.1-5.2 5.3-11.5 5.9-3.6.3-8.2 1.3-10.4 2.2-2.2 1-4.2 1.3-4.8.7-.4-.4-1.6-4.6-2.4-9.3-1.4-7-1.4-9.5-.4-14.9 3-16.8 15.5-27.8 32.5-28.8 4.4-.2 8.8-.9 9.8-1.4 1.1-.5 3-3.5 4.4-6.6 3.7-8.5 8.4-13.6 15.8-17.3 6.6-3.2 11.4-3.8 22.7-2.8 4.4.4 4.8.2 10.5-5.2 9.9-9.5 16.2-12 29.3-11.6 8 .3 10.4.8 15.5 3.2zm86.3 28.4c4.7 2.4 7.7 5.6 9.7 10.3 1.2 3 1.5 8 1.5 24.6v20.9l-8.4-4.1-8.5-4.1-.6-4.5c-2.3-17.9-9.7-31-22.8-40.7l-5.9-4.3h15.6c13.4 0 16.2.3 19.4 1.9zm-9.6 63.9c14.6 5.2 26.2 18.1 30.3 33.7 2.3 8.9 2.5 8.6-5.7 8.3l-7.3-.3-.7-4.3c-.9-5.7-5.4-13.6-9.7-17.4-9.7-8.6-24.9-10.9-36.2-5.6-10.7 4.9-17.9 14.9-18.7 26l-.4 5.7-6.6 2c-8.9 2.7-9.7 1.1-6.8-13 3.7-17.4 17.1-31.4 34.7-36.4 7-2 19.6-1.4 27.1 1.3zm-8.5 29.3c4.5 2.2 9.3 8 9.3 11.1 0 1.6-1.2 1.8-12.7 1.8-7.1 0-14.5.3-16.5.6-3.3.6-3.8.4-3.8-1.2 0-2.2 3.5-8.3 5.9-10.2 5.5-4.5 11.4-5.2 17.8-2.1z"/>
  <path d="M157.7 228.8c-2.3 2.6-2.2 9.4.1 11.5 1.1 1 3.5 1.7 5.9 1.7 5 0 7.5-2.5 7.5-7.5 0-5.1-2.5-7.5-7.7-7.5-2.8 0-4.7.6-5.8 1.8zM223.5 233.9c-7.7 2-14.3 7.8-16.5 14.6-2 6-.9 15.6 2.3 20.4 9.3 14.1 30.9 13.8 39.3-.5 6.6-11.3 2.4-26.9-8.8-32.3-5-2.4-11.9-3.4-16.3-2.2zm8.5 16.6c5.4 2.8 4.8 10.3-.9 12.3-8 2.8-12.7-8.7-5.1-12.5 3.1-1.6 2.5-1.6 6 .2zM185.2 312.6c-12.1 6-16.4 20.4-9.6 32.1 10 17.3 36.3 14.1 41.9-5.1 5.7-19.5-14.2-36-32.3-27zm13.3 14c2.7 1.1 4.6 5.9 3.5 8.9-2.1 5.5-10.2 5.7-12.8.3-1.1-2.3-1-3.2.2-5.7 2-3.8 5.1-5 9.1-3.5zM257.9 317c-.9.5-2.2 2.3-2.9 4-3.2 7.7 5.8 14.1 12.4 8.9 5.5-4.3 2.1-13.9-5-13.9-1.6 0-3.6.5-4.5 1zM246.4 382.9c-8.7 3.9-14.4 14.8-12.9 24.3 2.9 17.8 24.6 25.8 37.7 14 5.7-5.1 7.8-9.9 7.8-17.4-.1-10.2-4.8-17.7-13.7-21.5-4.6-1.9-14-1.6-18.9.6zm14.4 15.7c3.3 2.3 3 7.6-.5 10.4-6.4 5-14.3-2.9-9.3-9.3 2.5-3.1 6.3-3.6 9.8-1.1zM208.6 443.1c-5.5 4.3-2.1 13.9 5 13.9 6 0 9.7-5.5 7.4-11-2.1-5-8-6.4-12.4-2.9z"/>
</svg>
